<?xml version="1.0" encoding="UTF-8" standalone="no"?>
<!-- Generator: Adobe Illustrator 21.0.2, SVG Export Plug-In . SVG Version: 6.00 Build 0)  -->

<svg
   xmlns:dc="http://purl.org/dc/elements/1.1/"
   xmlns:cc="http://creativecommons.org/ns#"
   xmlns:rdf="http://www.w3.org/1999/02/22-rdf-syntax-ns#"
   xmlns:svg="http://www.w3.org/2000/svg"
   xmlns="http://www.w3.org/2000/svg"
   xmlns:sodipodi="http://sodipodi.sourceforge.net/DTD/sodipodi-0.dtd"
   xmlns:inkscape="http://www.inkscape.org/namespaces/inkscape"
   version="1.1"
   id="Ebene_1"
   x="0px"
   y="0px"
   viewBox="0 0 313.71273 105.77546"
   xml:space="preserve"
   inkscape:version="0.92.3 (2405546, 2018-03-11)"
   width="313.71274"
   height="105.77547"
   sodipodi:docname="sketch_handeye_calib_gridmount.svg"
   inkscape:export-filename="/home/stelzer/doc/sensor_manual/source/images/sketch_handeye_calib_gridmount.png"
   inkscape:export-xdpi="300"
   inkscape:export-ydpi="300"><metadata
     id="metadata69"><rdf:RDF><cc:Work
         rdf:about=""><dc:format>image/svg+xml</dc:format><dc:type
           rdf:resource="http://purl.org/dc/dcmitype/StillImage" /><dc:title>ico_robot_inactive</dc:title></cc:Work></rdf:RDF></metadata><defs
     id="defs67"><inkscape:perspective
   sodipodi:type="inkscape:persp3d"
   inkscape:vp_x="0 : 0.49999997 : 1"
   inkscape:vp_y="0 : 2.4956325 : 0"
   inkscape:vp_z="0.99999997 : 0.49999997 : 1"
   inkscape:persp3d-origin="0.49999999 : 0.33333332 : 1"
   id="perspective6593" /><marker
   inkscape:stockid="Arrow2Mend"
   orient="auto"
   refY="0"
   refX="0"
   id="Arrow2Mend"
   style="overflow:visible"><path
     id="path3830"
     style="fill-rule:evenodd;stroke-width:0.625;stroke-linejoin:round"
     d="M 8.7185878,4.0337352 -2.2072895,0.01601326 8.7185884,-4.0017078 c -1.7454984,2.3720609 -1.7354408,5.6174519 -6e-7,8.035443 z"
     transform="scale(-0.6)"
     inkscape:connector-curvature="0" /></marker><marker
   inkscape:stockid="Arrow1Lstart"
   orient="auto"
   refY="0"
   refX="0"
   id="Arrow1Lstart"
   style="overflow:visible"><path
     id="path3803"
     d="M 0,0 5,-5 -12.5,0 5,5 Z"
     style="fill-rule:evenodd;stroke:#000000;stroke-width:1.00000003pt"
     transform="matrix(0.8,0,0,0.8,10,0)"
     inkscape:connector-curvature="0" /></marker><marker
   inkscape:stockid="Arrow2Mstart"
   orient="auto"
   refY="0"
   refX="0"
   id="Arrow2Mstart"
   style="overflow:visible"><path
     id="path3827"
     style="fill-rule:evenodd;stroke-width:0.625;stroke-linejoin:round"
     d="M 8.7185878,4.0337352 -2.2072895,0.01601326 8.7185884,-4.0017078 c -1.7454984,2.3720609 -1.7354408,5.6174519 -6e-7,8.035443 z"
     transform="scale(0.6)"
     inkscape:connector-curvature="0" /></marker><marker
   inkscape:stockid="Arrow2Mstart"
   orient="auto"
   refY="0"
   refX="0"
   id="Arrow2Mstart-6"
   style="overflow:visible"><path
     inkscape:connector-curvature="0"
     id="path3827-7"
     style="fill-rule:evenodd;stroke-width:0.625;stroke-linejoin:round"
     d="M 8.7185878,4.0337352 -2.2072895,0.01601326 8.7185884,-4.0017078 c -1.7454984,2.3720609 -1.7354408,5.6174519 -6e-7,8.035443 z"
     transform="scale(0.6)" /></marker><marker
   inkscape:stockid="Arrow2Mstart"
   orient="auto"
   refY="0"
   refX="0"
   id="Arrow2Mstart-3"
   style="overflow:visible"><path
     inkscape:connector-curvature="0"
     id="path3827-5"
     style="fill-rule:evenodd;stroke-width:0.625;stroke-linejoin:round"
     d="M 8.7185878,4.0337352 -2.2072895,0.01601326 8.7185884,-4.0017078 c -1.7454984,2.3720609 -1.7354408,5.6174519 -6e-7,8.035443 z"
     transform="scale(0.6)" /></marker><marker
   inkscape:stockid="Arrow2Mstart"
   orient="auto"
   refY="0"
   refX="0"
   id="Arrow2Mstart-2"
   style="overflow:visible"><path
     inkscape:connector-curvature="0"
     id="path3827-9"
     style="fill-rule:evenodd;stroke-width:0.625;stroke-linejoin:round"
     d="M 8.7185878,4.0337352 -2.2072895,0.01601326 8.7185884,-4.0017078 c -1.7454984,2.3720609 -1.7354408,5.6174519 -6e-7,8.035443 z"
     transform="scale(0.6)" /></marker><marker
   inkscape:stockid="Arrow2Mstart"
   orient="auto"
   refY="0"
   refX="0"
   id="marker4295"
   style="overflow:visible"><path
     inkscape:connector-curvature="0"
     id="path4297"
     style="fill-rule:evenodd;stroke-width:0.625;stroke-linejoin:round"
     d="M 8.7185878,4.0337352 -2.2072895,0.01601326 8.7185884,-4.0017078 c -1.7454984,2.3720609 -1.7354408,5.6174519 -6e-7,8.035443 z"
     transform="scale(0.6)" /></marker><marker
   inkscape:stockid="Arrow2Mstart"
   orient="auto"
   refY="0"
   refX="0"
   id="marker4299"
   style="overflow:visible"><path
     inkscape:connector-curvature="0"
     id="path4301"
     style="fill-rule:evenodd;stroke-width:0.625;stroke-linejoin:round"
     d="M 8.7185878,4.0337352 -2.2072895,0.01601326 8.7185884,-4.0017078 c -1.7454984,2.3720609 -1.7354408,5.6174519 -6e-7,8.035443 z"
     transform="scale(0.6)" /></marker><marker
   inkscape:stockid="Arrow2Mstart"
   orient="auto"
   refY="0"
   refX="0"
   id="Arrow2Mstart-9"
   style="overflow:visible"><path
     inkscape:connector-curvature="0"
     id="path3827-3"
     style="fill-rule:evenodd;stroke-width:0.625;stroke-linejoin:round"
     d="M 8.7185878,4.0337352 -2.2072895,0.01601326 8.7185884,-4.0017078 c -1.7454984,2.3720609 -1.7354408,5.6174519 -6e-7,8.035443 z"
     transform="scale(0.6)" /></marker><marker
   inkscape:stockid="Arrow2Mstart"
   orient="auto"
   refY="0"
   refX="0"
   id="marker4295-6"
   style="overflow:visible"><path
     inkscape:connector-curvature="0"
     id="path4297-0"
     style="fill-rule:evenodd;stroke-width:0.625;stroke-linejoin:round"
     d="M 8.7185878,4.0337352 -2.2072895,0.01601326 8.7185884,-4.0017078 c -1.7454984,2.3720609 -1.7354408,5.6174519 -6e-7,8.035443 z"
     transform="scale(0.6)" /></marker><marker
   inkscape:stockid="Arrow2Mstart"
   orient="auto"
   refY="0"
   refX="0"
   id="marker4299-6"
   style="overflow:visible"><path
     inkscape:connector-curvature="0"
     id="path4301-2"
     style="fill-rule:evenodd;stroke-width:0.625;stroke-linejoin:round"
     d="M 8.7185878,4.0337352 -2.2072895,0.01601326 8.7185884,-4.0017078 c -1.7454984,2.3720609 -1.7354408,5.6174519 -6e-7,8.035443 z"
     transform="scale(0.6)" /></marker><marker
   inkscape:stockid="Arrow2Mstart"
   orient="auto"
   refY="0"
   refX="0"
   id="Arrow2Mstart-92"
   style="overflow:visible"><path
     inkscape:connector-curvature="0"
     id="path3827-0"
     style="fill-rule:evenodd;stroke-width:0.625;stroke-linejoin:round"
     d="M 8.7185878,4.0337352 -2.2072895,0.01601326 8.7185884,-4.0017078 c -1.7454984,2.3720609 -1.7354408,5.6174519 -6e-7,8.035443 z"
     transform="scale(0.6)" /></marker><marker
   inkscape:stockid="Arrow2Mstart"
   orient="auto"
   refY="0"
   refX="0"
   id="marker4369"
   style="overflow:visible"><path
     inkscape:connector-curvature="0"
     id="path4371"
     style="fill-rule:evenodd;stroke-width:0.625;stroke-linejoin:round"
     d="M 8.7185878,4.0337352 -2.2072895,0.01601326 8.7185884,-4.0017078 c -1.7454984,2.3720609 -1.7354408,5.6174519 -6e-7,8.035443 z"
     transform="scale(0.6)" /></marker><marker
   inkscape:stockid="Arrow2Mstart"
   orient="auto"
   refY="0"
   refX="0"
   id="marker4373"
   style="overflow:visible"><path
     inkscape:connector-curvature="0"
     id="path4375"
     style="fill-rule:evenodd;stroke-width:0.625;stroke-linejoin:round"
     d="M 8.7185878,4.0337352 -2.2072895,0.01601326 8.7185884,-4.0017078 c -1.7454984,2.3720609 -1.7354408,5.6174519 -6e-7,8.035443 z"
     transform="scale(0.6)" /></marker><marker
   inkscape:stockid="Arrow2Mstart"
   orient="auto"
   refY="0"
   refX="0"
   id="marker4373-9"
   style="overflow:visible"><path
     inkscape:connector-curvature="0"
     id="path4375-2"
     style="fill-rule:evenodd;stroke-width:0.625;stroke-linejoin:round"
     d="M 8.7185878,4.0337352 -2.2072895,0.01601326 8.7185884,-4.0017078 c -1.7454984,2.3720609 -1.7354408,5.6174519 -6e-7,8.035443 z"
     transform="scale(0.6)" /></marker><marker
   inkscape:stockid="Arrow2Mend"
   orient="auto"
   refY="0"
   refX="0"
   id="Arrow2Mend-2"
   style="overflow:visible"><path
     inkscape:connector-curvature="0"
     id="path3830-8"
     style="fill-rule:evenodd;stroke-width:0.625;stroke-linejoin:round"
     d="M 8.7185878,4.0337352 -2.2072895,0.01601326 8.7185884,-4.0017078 c -1.7454984,2.3720609 -1.7354408,5.6174519 -6e-7,8.035443 z"
     transform="scale(-0.6)" /></marker><marker
   inkscape:stockid="Arrow2Mstart"
   orient="auto"
   refY="0"
   refX="0"
   id="marker4373-2"
   style="overflow:visible"><path
     inkscape:connector-curvature="0"
     id="path4375-9"
     style="fill-rule:evenodd;stroke-width:0.625;stroke-linejoin:round"
     d="M 8.7185878,4.0337352 -2.2072895,0.01601326 8.7185884,-4.0017078 c -1.7454984,2.3720609 -1.7354408,5.6174519 -6e-7,8.035443 z"
     transform="scale(0.6)" /></marker><marker
   inkscape:stockid="Arrow2Mend"
   orient="auto"
   refY="0"
   refX="0"
   id="Arrow2Mend-1"
   style="overflow:visible"><path
     inkscape:connector-curvature="0"
     id="path3830-2"
     style="fill-rule:evenodd;stroke-width:0.625;stroke-linejoin:round"
     d="M 8.7185878,4.0337352 -2.2072895,0.01601326 8.7185884,-4.0017078 c -1.7454984,2.3720609 -1.7354408,5.6174519 -6e-7,8.035443 z"
     transform="scale(-0.6)" /></marker><marker
   inkscape:stockid="Arrow2Mstart"
   orient="auto"
   refY="0"
   refX="0"
   id="marker4373-4"
   style="overflow:visible"><path
     inkscape:connector-curvature="0"
     id="path4375-99"
     style="fill-rule:evenodd;stroke-width:0.625;stroke-linejoin:round"
     d="M 8.7185878,4.0337352 -2.2072895,0.01601326 8.7185884,-4.0017078 c -1.7454984,2.3720609 -1.7354408,5.6174519 -6e-7,8.035443 z"
     transform="scale(0.6)" /></marker><marker
   inkscape:stockid="Arrow2Mend"
   orient="auto"
   refY="0"
   refX="0"
   id="Arrow2Mend-9"
   style="overflow:visible"><path
     inkscape:connector-curvature="0"
     id="path3830-4"
     style="fill-rule:evenodd;stroke-width:0.625;stroke-linejoin:round"
     d="M 8.7185878,4.0337352 -2.2072895,0.01601326 8.7185884,-4.0017078 c -1.7454984,2.3720609 -1.7354408,5.6174519 -6e-7,8.035443 z"
     transform="scale(-0.6)" /></marker><clipPath
   clipPathUnits="userSpaceOnUse"
   id="clipPath5280"><rect
     style="fill:#e6e6e7;fill-opacity:0.28767126;fill-rule:nonzero;stroke:none"
     id="rect5282"
     width="61.13084"
     height="44.350056"
     x="-317.88129"
     y="48.992893"
     ry="1.3876112" /></clipPath><clipPath
   clipPathUnits="userSpaceOnUse"
   id="clipPath5291"><path
     style="fill:#e6e6e7;fill-opacity:0.28767126;fill-rule:nonzero;stroke:none"
     d="m -274.78501,25.385653 0.376,30.598725 -42.13017,15.375665 c -0.97024,0 -0.625,-55.848725 -0.625,-55.848725 0,-0.970237 42.37884,9.874335 42.37884,9.874335 z"
     id="path5293"
     inkscape:connector-curvature="0"
     sodipodi:nodetypes="cccccc" /></clipPath><clipPath
   clipPathUnits="userSpaceOnUse"
   id="clipPath5303"><path
     sodipodi:nodetypes="cccccc"
     inkscape:connector-curvature="0"
     id="path5305"
     d="m -340.19598,55.332907 -0.38143,30.840597 42.73899,15.497196 c 0.98427,0 0.63404,-56.290179 0.63404,-56.290179 0,-0.977907 -42.99126,9.952386 -42.99126,9.952386 z"
     style="fill:#e6e6e7;fill-opacity:0.28767126;fill-rule:nonzero;stroke:none" /></clipPath><clipPath
   clipPathUnits="userSpaceOnUse"
   id="clipPath5307"><path
     style="fill:#616165;fill-opacity:0.74885846;fill-rule:nonzero;stroke:none"
     d="m -192.57786,176.05694 40.35251,-0.0591 c 0.98427,0 13.18518,-32.42533 13.18518,-32.42533 l -65.08834,0.0529 z"
     id="path5309"
     inkscape:connector-curvature="0"
     sodipodi:nodetypes="ccccc" /></clipPath><marker
   inkscape:stockid="Arrow2Mend"
   orient="auto"
   refY="0"
   refX="0"
   id="Arrow2Mend-9-5"
   style="overflow:visible"><path
     inkscape:connector-curvature="0"
     id="path3830-4-0"
     style="fill-rule:evenodd;stroke-width:0.625;stroke-linejoin:round"
     d="M 8.7185878,4.0337352 -2.2072895,0.01601326 8.7185884,-4.0017078 c -1.7454984,2.3720609 -1.7354408,5.6174519 -6e-7,8.035443 z"
     transform="scale(-0.6)" /></marker><clipPath
   clipPathUnits="userSpaceOnUse"
   id="clipPath5742"><rect
     style="fill:none;stroke:#66696d;stroke-width:1.528;stroke-miterlimit:4;stroke-dasharray:none;stroke-dashoffset:0;stroke-opacity:1"
     id="rect5744"
     width="135.05733"
     height="112.43"
     x="143.54271"
     y="651.01575" /></clipPath><clipPath
   clipPathUnits="userSpaceOnUse"
   id="clipPath6619"><rect
     y="195.70236"
     x="608.13409"
     height="113.22748"
     width="151.15645"
     id="rect6621"
     style="fill:none;stroke:#66696d;stroke-width:1.53273737;stroke-miterlimit:4;stroke-dasharray:none;stroke-dashoffset:0;stroke-opacity:1" /></clipPath><clipPath
   clipPathUnits="userSpaceOnUse"
   id="clipPath5291-3"><path
     style="fill:#e6e6e7;fill-opacity:0.28767126;fill-rule:nonzero;stroke:none"
     d="m -274.78501,25.385653 0.376,30.598725 -42.13017,15.375665 c -0.97024,0 -0.625,-55.848725 -0.625,-55.848725 0,-0.970237 42.37884,9.874335 42.37884,9.874335 z"
     id="path5293-5"
     inkscape:connector-curvature="0"
     sodipodi:nodetypes="cccccc" /></clipPath>



</defs><sodipodi:namedview
     pagecolor="#ffffff"
     bordercolor="#666666"
     borderopacity="1"
     objecttolerance="10"
     gridtolerance="10"
     guidetolerance="10"
     inkscape:pageopacity="0"
     inkscape:pageshadow="2"
     inkscape:window-width="1853"
     inkscape:window-height="1025"
     id="namedview65"
     showgrid="false"
     inkscape:zoom="2.8284272"
     inkscape:cx="202.13452"
     inkscape:cy="-6.5294308"
     inkscape:window-x="67"
     inkscape:window-y="27"
     inkscape:window-maximized="1"
     inkscape:current-layer="Ebene_1"
     showguides="true"
     inkscape:guide-bbox="true"
     fit-margin-top="0"
     fit-margin-left="0"
     fit-margin-right="0"
     fit-margin-bottom="0"><inkscape:grid
       type="xygrid"
       id="grid6482"
       originx="-420.72855"
       originy="-91.770154" /></sodipodi:namedview><style
     type="text/css"
     id="style3">
	.st0{fill:#FFFFFF;}
	.st1{fill:#66696D;}
	.st2{fill:#FFFFFF;stroke:#66696D;stroke-width:3;stroke-linejoin:round;}
	.st3{fill:#FFFFFF;stroke:#66696D;stroke-width:2;stroke-linejoin:round;}
	.st4{fill:none;stroke:#66696D;stroke-width:2;stroke-linejoin:round;}
	.st5{fill:none;stroke:#66696D;stroke-width:1.5;stroke-linecap:round;stroke-linejoin:round;}
	.st6{fill:none;stroke:#66696D;stroke-width:5;stroke-linejoin:round;}
	.st7{fill:none;stroke:#66696D;stroke-width:2;stroke-linecap:round;stroke-linejoin:round;}
	.st8{fill:#FFFFFF;stroke:#66696D;stroke-width:5;stroke-linejoin:round;}
</style><title
     id="title5">ico_robot_inactive</title><flowRoot
     transform="translate(0.97809065,-602.66968)"
     style="font-style:normal;font-weight:normal;line-height:0.01%;font-family:sans-serif;letter-spacing:0px;word-spacing:0px;fill:#000000;fill-opacity:1;stroke:none"
     id="flowRoot6064"
     xml:space="preserve"><flowRegion
       id="flowRegion6066"
       style="font-family:sans-serif"><rect
         y="595.86145"
         x="212.13203"
         height="66.114487"
         width="86.267029"
         id="rect6068"
         style="font-family:sans-serif" /></flowRegion><flowPara
       id="flowPara6070"
       style="font-size:40px;line-height:1.25;font-family:sans-serif"> </flowPara></flowRoot><path
     style="fill:#e6e6e7;fill-opacity:1;stroke:none"
     d="M 10.95572,39.26749 118.61713,20.76896 106.96305,132.31505 c 0,0 -76.58387,-12.02404 -96.00733,-93.04756 z"
     id="path5535"
     inkscape:connector-curvature="0"
     sodipodi:nodetypes="cccc" /><g
     transform="matrix(0.51945875,0.31954784,-0.92908273,1.5103222,678.53137,-629.29148)"
     id="g5539"><g
       transform="matrix(0.77471199,0,0,0.77471199,-57.205696,114.28699)"
       id="g5541"><g
         transform="matrix(1,0,0,0.22485912,0,392.13317)"
         id="g5543"><g
           id="g5545"><g
             id="g5547"><rect
               style="fill:#66696d;fill-opacity:1;stroke:none"
               id="rect5549"
               width="12.249819"
               height="7.6664572"
               x="-253.9225"
               y="500.80005" /><rect
               style="fill:#ffffff;fill-opacity:1;stroke:none"
               id="rect5551"
               width="12.249819"
               height="7.6664572"
               x="-241.67268"
               y="500.80005" /><rect
               style="fill:#66696d;fill-opacity:1;stroke:none"
               id="rect5553"
               width="12.249819"
               height="7.6664572"
               x="-229.42287"
               y="500.80005" /><rect
               style="fill:#ffffff;fill-opacity:1;stroke:none"
               id="rect5555"
               width="12.249819"
               height="7.6664572"
               x="-217.17305"
               y="500.80005" /><rect
               style="fill:#66696d;fill-opacity:1;stroke:none"
               id="rect5557"
               width="12.249819"
               height="7.6664572"
               x="-204.92323"
               y="500.80005" /><rect
               style="fill:#ffffff;fill-opacity:1;stroke:none"
               id="rect5559"
               width="12.249819"
               height="7.6664572"
               x="-192.67342"
               y="500.80005" /><rect
               style="fill:#66696d;fill-opacity:1;stroke:none"
               id="rect5561"
               width="12.249819"
               height="7.6664572"
               x="-180.42358"
               y="500.80005" /></g><rect
             y="500.80005"
             x="-168.17377"
             height="7.6664572"
             width="12.249819"
             id="rect5563"
             style="fill:#ffffff;fill-opacity:1;stroke:none" /></g><g
           id="g5565"
           transform="translate(97.998552)"><rect
             style="fill:#66696d;fill-opacity:1;stroke:none"
             id="rect5567"
             width="12.249819"
             height="7.6664572"
             x="-253.9225"
             y="500.80005" /></g></g></g><rect
       style="fill:#66696d;fill-opacity:1;fill-rule:nonzero;stroke:none"
       id="rect5569"
       width="85.401497"
       height="1.2279032"
       x="-253.9225"
       y="506.06491" /></g><g
     id="g5573"
     transform="matrix(-0.91332213,0.40723787,0.40723787,0.91332213,278.23991,-231.1523)"><rect
       x="237.8"
       y="151.5"
       transform="matrix(0.8997,0.4366,-0.4366,0.8997,95.0245,-89.3523)"
       class="st3"
       width="8.1999998"
       height="21.200001"
       id="rect5575"
       style="fill:#ffffff;stroke:#66696d;stroke-width:2;stroke-linejoin:round" /><line
       class="st5"
       x1="237.10001"
       y1="148.2"
       x2="243"
       y2="151"
       id="line5577"
       style="fill:none;stroke:#66696d;stroke-width:1.5;stroke-linecap:round;stroke-linejoin:round" /><line
       class="st5"
       x1="235.89999"
       y1="150.60001"
       x2="241.8"
       y2="153.39999"
       id="line5579"
       style="fill:none;stroke:#66696d;stroke-width:1.5;stroke-linecap:round;stroke-linejoin:round" /><line
       class="st5"
       x1="234.7"
       y1="153"
       x2="240.39999"
       y2="155.8"
       id="line5581"
       style="fill:none;stroke:#66696d;stroke-width:1.5;stroke-linecap:round;stroke-linejoin:round" /><line
       class="st5"
       x1="233.60001"
       y1="155.39999"
       x2="239.39999"
       y2="158.3"
       id="line5583"
       style="fill:none;stroke:#66696d;stroke-width:1.5;stroke-linecap:round;stroke-linejoin:round" /><rect
       x="245.60001"
       y="161.7"
       transform="matrix(0.8997,0.4366,-0.4366,0.8997,97.1532,-91.9974)"
       class="st4"
       width="6.1999998"
       height="7.3000002"
       id="rect5585"
       style="fill:none;stroke:#66696d;stroke-width:2;stroke-linejoin:round" /></g><g
     transform="rotate(-16.266434,-257.08043,706.36202)"
     inkscape:transform-center-y="-27.56949"
     inkscape:transform-center-x="-41.455044"
     id="g5587"><g
       id="g5589"
       inkscape:transform-center-x="-38.95974"
       transform="rotate(-4.3972263,225.36376,265.65635)"
       inkscape:transform-center-y="-7.3982941"><g
         inkscape:transform-center-y="3.0022138"
         transform="rotate(10.576611,237.72442,167.07689)"
         inkscape:transform-center-x="-6.3685804"
         id="g5591"><g
           id="g5705"
           transform="rotate(36.932799,237.62294,168.85677)"
           inkscape:transform-center-x="-7.7128167"
           inkscape:transform-center-y="6.1753951"><path
             class="st1"
             d="m 181.17503,734.12948 9.66406,-6.05027 3.95851,6.2634 -9.66406,6.05028 z m -4.67023,-1.07655 7.63275,12.06943 15.33029,-9.70321 -7.63275,-12.06943 z"
             id="path5537"
             inkscape:connector-curvature="0"
             style="fill:#66696d"
             transform="rotate(37.081619,1057.8218,541.6484)" /><rect
             x="-154.63242"
             y="254.0038"
             transform="rotate(-85.138233)"
             class="st0"
             width="10.900283"
             height="14.800385"
             id="rect5593"
             style="fill:#ffffff" /><rect
             style="fill:#ffffff"
             id="rect5709"
             height="14.800385"
             width="10.900283"
             class="st0"
             transform="rotate(-85.138233)"
             y="254.0038"
             x="-154.63242" /></g><g
           inkscape:transform-center-y="6.1753951"
           inkscape:transform-center-x="-7.7128167"
           transform="rotate(36.932799,216.66275,302.78112)"
           id="g5729"><rect
             style="fill:#ffffff"
             id="rect5733"
             height="14.800385"
             width="10.900283"
             class="st0"
             transform="rotate(-85.138233)"
             y="254.0038"
             x="-154.63242" /><path
             style="fill:none;stroke:#66696d;stroke-width:1.528;stroke-miterlimit:4;stroke-dashoffset:0;stroke-opacity:1"
             d="m 172.5811,191.25667 1.04404,-11.64077 9.89777,0.88772"
             id="rect5737"
             inkscape:connector-curvature="0"
             sodipodi:nodetypes="ccc" /></g></g><path
         class="st2"
         d="m 245.68737,163.66692 0.0775,-0.44044 c 0,0 -0.2773,-0.23045 -0.87066,-0.47112 -1.77796,-1.76603 -4.0841,-2.85309 -6.5453,-3.05927 -0.31606,-0.0102 -0.53628,-0.049 -0.85234,-0.0592 -1.15819,-0.38549 -2.35514,-0.55077 -3.64793,-0.68751 -5.77474,-0.47156 -21.89988,-2.76498 -21.89988,-2.76498 l -44.51155,-4.06595 -9.62457,-0.78593 -1.99229,23.44356 11.43319,1.60378 c 3.84982,0.31438 46.96465,3.54416 53.39197,3.40404 4.97947,0.60403 9.91209,0.70031 14.82639,0.38469 0.31607,0.0102 0.66067,0.11629 0.97673,0.12652 5.6789,0.5001 10.7832,-3.73265 11.25475,-9.50739 0.30202,-2.48974 -0.46853,-5.07745 -2.01604,-7.12079 z"
         id="path5595"
         inkscape:connector-curvature="0"
         style="fill:#ffffff;stroke:#66696d;stroke-width:3;stroke-linejoin:round" /><line
         class="st4"
         x1="186.57001"
         y1="177.82733"
         x2="188.80298"
         y2="153.79041"
         id="line5597"
         style="fill:none;stroke:#66696d;stroke-width:2;stroke-linejoin:round" /></g><path
       style="fill:#ffffff;stroke:#66696d;stroke-width:3;stroke-linejoin:round"
       inkscape:connector-curvature="0"
       id="path5599"
       d="m 134.88354,182.41158 c 0,0 -12.2747,33.53001 -21.42066,43.80188 l 0.0986,0.10139 c -1.82665,1.87439 -3.25898,4.15439 -4.29278,6.54004 -4.4549,10.93818 4.5171,20.06579 15.55527,24.5221 11.03819,4.45632 11.79177,0.66658 16.34667,-10.2702 1.44786,-3.37989 7.23882,-2.69804 6.88686,-6.10335 0.45221,-3.69399 0.50446,-7.39361 0.35673,-11.09607 -1.17648,-22.9189 18.85596,-39.23765 18.85596,-39.23765 4.34758,-3.33894 7.6108,-7.7933 9.48406,-12.96737 4.04082,-9.94393 -0.69913,-21.312 -10.64306,-25.35282 -9.94393,-4.04082 -21.312,0.69913 -25.35282,10.64306 v 0 c -1.13943,2.78419 -2.08029,5.67119 -2.82258,8.661 -0.74654,3.28979 -3.05222,10.75798 -3.05222,10.75798 z"
       class="st2" /><path
       style="fill:#ffffff;stroke:#66696d;stroke-width:2;stroke-linejoin:round"
       inkscape:connector-curvature="0"
       id="path5601"
       d="m 163.73796,157.51655 c -6.96118,-2.79858 -14.9084,0.48953 -17.70698,7.4507 -0.72534,1.78994 -1.35212,3.68128 -1.77891,5.57544 -1.72127,8.57654 0.76832,16.41248 6.43669,18.69275 6.95976,2.89857 16.04924,-3.3737 20.4999,-14.01192 2.79717,-6.86118 -0.49093,-14.80841 -7.4507,-17.70697 z"
       class="st3" /></g><rect
     ry="1.3876112"
     x="133.08987"
     y="20.517012"
     transform="rotate(0.66489119)"
     class="st4"
     width="2.8885117"
     height="2.900214"
     id="rect5607"
     style="fill:none;stroke:#66696d;stroke-width:2.00007963;stroke-linejoin:round" /><g
     inkscape:transform-center-y="7.5531144"
     inkscape:transform-center-x="-0.85687992"
     transform="rotate(132.03286,189.92863,174.71521)"
     id="g5611"><path
       class="st3"
       d="m 139.91393,330.46768 h -17.0285"
       id="path5613"
       inkscape:connector-curvature="0"
       style="fill:#ffffff;stroke:#000000;stroke-width:0.99999994;stroke-linejoin:round;stroke-miterlimit:4;stroke-dasharray:none;stroke-opacity:1;marker-start:url(#Arrow2Mstart)"
       sodipodi:nodetypes="cc" /><path
       class="st3"
       d="m 123.36955,313.80964 v 17.0285"
       id="path5615"
       inkscape:connector-curvature="0"
       style="fill:#ffffff;stroke:#000000;stroke-width:0.99999988;stroke-linejoin:round;stroke-miterlimit:4;stroke-dasharray:none;stroke-opacity:1;marker-start:url(#Arrow2Mstart)"
       sodipodi:nodetypes="cc" /><path
       class="st3"
       d="m 132.13694,319.11215 -8.80648,11.64621"
       id="path5617"
       inkscape:connector-curvature="0"
       style="fill:#ffffff;stroke:#000000;stroke-width:0.99999994;stroke-linejoin:round;stroke-miterlimit:4;stroke-dasharray:none;stroke-opacity:1;marker-start:url(#Arrow2Mstart)"
       sodipodi:nodetypes="cc" /></g><g
     inkscape:transform-center-y="8.0125043"
     inkscape:transform-center-x="-2.4572984"
     transform="rotate(123.64563,169.49356,181.92231)"
     id="g5627"><path
       class="st3"
       d="m 139.91393,330.46768 h -17.0285"
       id="path5629"
       inkscape:connector-curvature="0"
       style="fill:#ffffff;stroke:#000000;stroke-width:0.99999994;stroke-linejoin:round;stroke-miterlimit:4;stroke-dasharray:none;stroke-opacity:1;marker-start:url(#Arrow2Mstart)"
       sodipodi:nodetypes="cc" /><path
       class="st3"
       d="m 123.36955,313.80964 v 17.0285"
       id="path5631"
       inkscape:connector-curvature="0"
       style="fill:#ffffff;stroke:#000000;stroke-width:0.99999988;stroke-linejoin:round;stroke-miterlimit:4;stroke-dasharray:none;stroke-opacity:1;marker-start:url(#Arrow2Mstart)"
       sodipodi:nodetypes="cc" /><path
       class="st3"
       d="m 132.13694,319.11215 -8.80648,11.64621"
       id="path5633"
       inkscape:connector-curvature="0"
       style="fill:#ffffff;stroke:#000000;stroke-width:0.99999994;stroke-linejoin:round;stroke-miterlimit:4;stroke-dasharray:none;stroke-opacity:1;marker-start:url(#Arrow2Mstart)"
       sodipodi:nodetypes="cc" /></g><text
     id="text5637"
     y="86.391479"
     x="64.948273"
     style="font-style:italic;font-weight:normal;line-height:0%;font-family:sans-serif;-inkscape-font-specification:'Sans Italic';letter-spacing:0px;word-spacing:0px;fill:#000000;fill-opacity:1;stroke:none"
     xml:space="preserve"><tspan
       style="font-size:9.48746109px;line-height:1.25;font-family:sans-serif"
       y="86.391479"
       x="64.948273"
       id="tspan5639"
       sodipodi:role="line">robot</tspan></text>
<g
     id="g5645"
     transform="translate(-78.896726,-121.69417)"><text
   xml:space="preserve"
   style="font-style:italic;font-weight:normal;line-height:0%;font-family:sans-serif;-inkscape-font-specification:'Sans Italic';letter-spacing:0px;word-spacing:0px;fill:#000000;fill-opacity:1;stroke:none"
   x="150.88649"
   y="139.45235"
   id="text5648"><tspan
     style="font-size:9.48746109px;line-height:1.25;font-family:sans-serif"
     sodipodi:role="line"
     id="tspan5650"
     x="150.88649"
     y="139.45235">camera</tspan></text>


</g><flowRoot
     style="font-style:normal;font-weight:normal;line-height:0.01%;font-family:sans-serif;letter-spacing:0px;word-spacing:0px;fill:#000000;fill-opacity:1;stroke:none"
     id="flowRoot5690"
     xml:space="preserve"
     transform="translate(-201.96155,-602.66968)"><flowRegion
       style="font-family:sans-serif"
       id="flowRegion5692"><rect
         style="font-family:sans-serif"
         y="595.86145"
         x="212.13203"
         height="66.114487"
         width="86.267029"
         id="rect5694" /></flowRegion><flowPara
       style="font-size:40px;line-height:1.25;font-family:sans-serif"
       id="flowPara5696"> </flowPara></flowRoot><path
     style="fill:#e6e6e7;fill-opacity:1;stroke:none"
     d="M 189.04612,39.26749 296.70753,20.76896 285.05345,132.31505 c 0,0 -76.58387,-12.02404 -96.00733,-93.04756 z"
     id="path5910"
     inkscape:connector-curvature="0"
     sodipodi:nodetypes="cccc" /><g
     inkscape:transform-center-y="-3.2884527"
     transform="rotate(-18.809257,-113.34346,165.65271)"
     inkscape:transform-center-x="-48.485432"
     id="g6078"><g
       id="g6080"
       inkscape:transform-center-x="-14.309772"
       transform="rotate(57.828479,239.97554,169.98549)"
       inkscape:transform-center-y="8.6681498"><rect
         x="-154.63242"
         y="254.0038"
         transform="rotate(-85.138233)"
         class="st0"
         width="10.900283"
         height="14.800385"
         id="rect6082"
         style="fill:#ffffff" /><path
         class="st1"
         d="m 242.39596,166.62946 11.3578,1.0002 -0.61852,7.38359 -11.3578,-1.00019 z m -3.07669,-3.67477 -1.18806,14.2309 18.08073,1.50243 1.18805,-14.2309 z"
         id="path6084"
         inkscape:connector-curvature="0"
         style="fill:#66696d" /><path
         class="st3"
         d="m 282.38342,162.86071 -14.71393,-3.86138 c -0.84212,-0.37528 -1.82907,-0.18573 -2.60603,0.35865 l -9.19906,6.59979 c -1.29492,0.90729 -1.70087,2.6976 -0.98526,4.0496 l 0.15292,0.16315 c 1.07044,1.142 2.89951,1.32772 4.16589,0.32459 l 8.25897,-5.9025 14.46134,0.91075 c 0.63213,0.0205 1.34178,-0.39954 1.42953,-1.15605 v 0 c 0.11629,-0.66066 -0.39955,-1.34177 -0.96437,-1.4866 z"
         id="path6086"
         inkscape:connector-curvature="0"
         style="fill:#ffffff;stroke:#66696d;stroke-width:2;stroke-linejoin:round" /><path
         class="st3"
         d="m 278.76991,187.5174 -13.98596,-3.86947 -5.9025,-8.25896 c -0.87876,-1.19908 -2.58345,-1.31751 -3.68669,-0.46729 0,0 0,0 -0.0958,0.0285 l -0.16314,0.15291 c -1.13178,0.75438 -1.49896,2.32446 -0.74459,3.45624 0.0285,0.0958 0.0285,0.0958 0.0571,0.19169 l 6.5998,9.19906 c 0.54437,0.77695 1.3865,1.15222 2.30614,1.08705 l 15.27493,1.19019 c 0.63213,0.0204 1.16032,-0.65853 1.48661,-0.96437 v 0 c -0.39955,-1.34177 -0.48516,-1.6293 -1.14583,-1.74559 z"
         id="path6088"
         inkscape:connector-curvature="0"
         style="fill:#ffffff;stroke:#66696d;stroke-width:2;stroke-linejoin:round" /></g><path
       style="fill:#ffffff;stroke:#66696d;stroke-width:3;stroke-linejoin:round"
       inkscape:connector-curvature="0"
       id="path6106"
       d="m 245.68737,163.66692 0.0775,-0.44044 c 0,0 -0.2773,-0.23045 -0.87066,-0.47112 -1.77796,-1.76603 -4.0841,-2.85309 -6.5453,-3.05927 -0.31606,-0.0102 -0.53628,-0.049 -0.85234,-0.0592 -1.15819,-0.38549 -2.35514,-0.55077 -3.64793,-0.68751 -5.77474,-0.47156 -21.89988,-2.76498 -21.89988,-2.76498 l -44.51155,-4.06595 -9.62457,-0.78593 -1.99229,23.44356 11.43319,1.60378 c 3.84982,0.31438 46.96465,3.54416 53.39197,3.40404 4.97947,0.60403 9.91209,0.70031 14.82639,0.38469 0.31607,0.0102 0.66067,0.11629 0.97673,0.12652 5.6789,0.5001 10.7832,-3.73265 11.25475,-9.50739 0.30202,-2.48974 -0.46853,-5.07745 -2.01604,-7.12079 z"
       class="st2" /><line
       style="fill:none;stroke:#66696d;stroke-width:2;stroke-linejoin:round"
       id="line6108"
       y2="153.79041"
       x2="188.80298"
       y1="177.82733"
       x1="186.57001"
       class="st4" /></g><g
     id="g5948"
     transform="matrix(-0.91332213,0.40723787,0.40723787,0.91332213,456.33031,-231.1523)"><rect
       x="237.8"
       y="151.5"
       transform="matrix(0.8997,0.4366,-0.4366,0.8997,95.0245,-89.3523)"
       class="st3"
       width="8.1999998"
       height="21.200001"
       id="rect5950"
       style="fill:#ffffff;stroke:#66696d;stroke-width:2;stroke-linejoin:round" /><line
       class="st5"
       x1="237.10001"
       y1="148.2"
       x2="243"
       y2="151"
       id="line5952"
       style="fill:none;stroke:#66696d;stroke-width:1.5;stroke-linecap:round;stroke-linejoin:round" /><line
       class="st5"
       x1="235.89999"
       y1="150.60001"
       x2="241.8"
       y2="153.39999"
       id="line5954"
       style="fill:none;stroke:#66696d;stroke-width:1.5;stroke-linecap:round;stroke-linejoin:round" /><line
       class="st5"
       x1="234.7"
       y1="153"
       x2="240.39999"
       y2="155.8"
       id="line5956"
       style="fill:none;stroke:#66696d;stroke-width:1.5;stroke-linecap:round;stroke-linejoin:round" /><line
       class="st5"
       x1="233.60001"
       y1="155.39999"
       x2="239.39999"
       y2="158.3"
       id="line5958"
       style="fill:none;stroke:#66696d;stroke-width:1.5;stroke-linecap:round;stroke-linejoin:round" /><rect
       x="245.60001"
       y="161.7"
       transform="matrix(0.8997,0.4366,-0.4366,0.8997,97.1532,-91.9974)"
       class="st4"
       width="6.1999998"
       height="7.3000002"
       id="rect5960"
       style="fill:none;stroke:#66696d;stroke-width:2;stroke-linejoin:round" /></g><g
     transform="rotate(-34.140116,-2.4390755,134.79694)"
     inkscape:transform-center-y="-37.91154"
     inkscape:transform-center-x="-19.421292"
     id="g5962"><path
       style="fill:#ffffff;stroke:#66696d;stroke-width:3;stroke-linejoin:round"
       inkscape:connector-curvature="0"
       id="path5974"
       d="m 134.88354,182.41158 c 0,0 -12.2747,33.53001 -21.42066,43.80188 l 0.0986,0.10139 c -1.82665,1.87439 -3.25898,4.15439 -4.29278,6.54004 -4.4549,10.93818 4.5171,20.06579 15.55527,24.5221 11.03819,4.45632 11.79177,0.66658 16.34667,-10.2702 1.44786,-3.37989 7.23882,-2.69804 6.88686,-6.10335 0.45221,-3.69399 0.50446,-7.39361 0.35673,-11.09607 -1.17648,-22.9189 18.85596,-39.23765 18.85596,-39.23765 4.34758,-3.33894 7.6108,-7.7933 9.48406,-12.96737 4.04082,-9.94393 -0.69913,-21.312 -10.64306,-25.35282 -9.94393,-4.04082 -21.312,0.69913 -25.35282,10.64306 v 0 c -1.13943,2.78419 -2.08029,5.67119 -2.82258,8.661 -0.74654,3.28979 -3.05222,10.75798 -3.05222,10.75798 z"
       class="st2" /><path
       style="fill:#ffffff;stroke:#66696d;stroke-width:2;stroke-linejoin:round"
       inkscape:connector-curvature="0"
       id="path5976"
       d="m 163.73796,157.51655 c -6.96118,-2.79858 -14.9084,0.48953 -17.70698,7.4507 -0.72534,1.78994 -1.35212,3.68128 -1.77891,5.57544 -1.72127,8.57654 0.76832,16.41248 6.43669,18.69275 6.95976,2.89857 16.04924,-3.3737 20.4999,-14.01192 2.79717,-6.86118 -0.49093,-14.80841 -7.4507,-17.70697 z"
       class="st3" /></g><path
     class="st2"
     d="m 179.04908,173.96598 c 0,-5.7 2.5,-9.1 4.5,-12 8.1,-8.5 7.9,-21.9 -0.6,-30.1 -8.5,-8.2 -21.9,-7.9 -30.1,0.6 -1.6,1.7 -3,3.7 -4,5.8 v 0 c -4.5,9.1 -5.1,9.7 -7.7,28.5 0,0 -1,7.8 -6.7,7.8 v 16.9 h 57.8 v -4 c 0.2,0.1 -13.2,-4.5 -13.2,-13.5 z"
     id="path5978"
     inkscape:connector-curvature="0"
     style="fill:#ffffff;stroke:#66696d;stroke-width:3;stroke-linejoin:round" /><rect
     ry="1.3876112"
     x="311.1683"
     y="18.45039"
     transform="rotate(0.66489119)"
     class="st4"
     width="2.8885117"
     height="2.900214"
     id="rect5982"
     style="fill:none;stroke:#66696d;stroke-width:2.00007963;stroke-linejoin:round" /><g
     inkscape:transform-center-y="7.5390417"
     inkscape:transform-center-x="-0.96046024"
     transform="rotate(131.55391,279.75132,214.76495)"
     id="g5986"><path
       class="st3"
       d="m 139.91393,330.46768 h -17.0285"
       id="path5988"
       inkscape:connector-curvature="0"
       style="fill:#ffffff;stroke:#000000;stroke-width:0.99999994;stroke-linejoin:round;stroke-miterlimit:4;stroke-dasharray:none;stroke-opacity:1;marker-start:url(#Arrow2Mstart)"
       sodipodi:nodetypes="cc" /><path
       class="st3"
       d="m 123.36955,313.80964 v 17.0285"
       id="path5990"
       inkscape:connector-curvature="0"
       style="fill:#ffffff;stroke:#000000;stroke-width:0.99999988;stroke-linejoin:round;stroke-miterlimit:4;stroke-dasharray:none;stroke-opacity:1;marker-start:url(#Arrow2Mstart)"
       sodipodi:nodetypes="cc" /><path
       class="st3"
       d="m 132.13694,319.11215 -8.80648,11.64621"
       id="path5992"
       inkscape:connector-curvature="0"
       style="fill:#ffffff;stroke:#000000;stroke-width:0.99999994;stroke-linejoin:round;stroke-miterlimit:4;stroke-dasharray:none;stroke-opacity:1;marker-start:url(#Arrow2Mstart)"
       sodipodi:nodetypes="cc" /></g><g
     inkscape:transform-center-y="8.3806355"
     inkscape:transform-center-x="1.377586"
     transform="rotate(139.79172,232.17436,231.86206)"
     id="g6002"><path
       class="st3"
       d="m 139.91393,330.46768 h -17.0285"
       id="path6004"
       inkscape:connector-curvature="0"
       style="fill:#ffffff;stroke:#000000;stroke-width:0.99999994;stroke-linejoin:round;stroke-miterlimit:4;stroke-dasharray:none;stroke-opacity:1;marker-start:url(#Arrow2Mstart)"
       sodipodi:nodetypes="cc" /><path
       class="st3"
       d="m 123.36955,313.80964 v 17.0285"
       id="path6006"
       inkscape:connector-curvature="0"
       style="fill:#ffffff;stroke:#000000;stroke-width:0.99999988;stroke-linejoin:round;stroke-miterlimit:4;stroke-dasharray:none;stroke-opacity:1;marker-start:url(#Arrow2Mstart)"
       sodipodi:nodetypes="cc" /><path
       class="st3"
       d="m 132.13694,319.11215 -8.80648,11.64621"
       id="path6008"
       inkscape:connector-curvature="0"
       style="fill:#ffffff;stroke:#000000;stroke-width:0.99999994;stroke-linejoin:round;stroke-miterlimit:4;stroke-dasharray:none;stroke-opacity:1;marker-start:url(#Arrow2Mstart)"
       sodipodi:nodetypes="cc" /></g><text
     id="text6012"
     y="100.28185"
     x="267.31131"
     style="font-style:italic;font-weight:normal;line-height:0%;font-family:sans-serif;-inkscape-font-specification:'Sans Italic';letter-spacing:0px;word-spacing:0px;fill:#000000;fill-opacity:1;stroke:none"
     xml:space="preserve"><tspan
       y="100.28185"
       x="267.31131"
       id="tspan6014"
       sodipodi:role="line"
       style="font-size:9.48746109px;line-height:1.25;font-family:sans-serif">robot</tspan></text>
<g
     id="g6020"
     transform="translate(101.63149,-121.01371)"><text
   xml:space="preserve"
   style="font-style:italic;font-weight:normal;line-height:0%;font-family:sans-serif;-inkscape-font-specification:'Sans Italic';letter-spacing:0px;word-spacing:0px;fill:#000000;fill-opacity:1;stroke:none"
   x="150.88649"
   y="139.45235"
   id="text6022"><tspan
     sodipodi:role="line"
     id="tspan6024"
     x="150.88649"
     y="139.45235"
     style="font-size:9.48746109px;line-height:1.25;font-family:sans-serif">camera</tspan></text>


</g><g
     transform="rotate(-4.0917096,-3109.5199,6424.9608)"
     id="g6484"><g
       id="g5914"
       transform="matrix(0.49526485,0.35589456,-1.0347606,1.4399786,1332.6729,-333.03411)"><g
         id="g5916"
         transform="matrix(0.77471199,0,0,0.77471199,-57.205696,114.28699)"><g
           id="g5918"
           transform="matrix(1,0,0,0.22485912,0,392.13317)"><g
             id="g5920"><g
               id="g5922"><rect
                 y="500.80005"
                 x="-253.9225"
                 height="7.6664572"
                 width="12.249819"
                 id="rect5924"
                 style="fill:#66696d;fill-opacity:1;stroke:none" /><rect
                 y="500.80005"
                 x="-241.67268"
                 height="7.6664572"
                 width="12.249819"
                 id="rect5926"
                 style="fill:#ffffff;fill-opacity:1;stroke:none" /><rect
                 y="500.80005"
                 x="-229.42287"
                 height="7.6664572"
                 width="12.249819"
                 id="rect5928"
                 style="fill:#66696d;fill-opacity:1;stroke:none" /><rect
                 y="500.80005"
                 x="-217.17305"
                 height="7.6664572"
                 width="12.249819"
                 id="rect5930"
                 style="fill:#ffffff;fill-opacity:1;stroke:none" /><rect
                 y="500.80005"
                 x="-204.92323"
                 height="7.6664572"
                 width="12.249819"
                 id="rect5932"
                 style="fill:#66696d;fill-opacity:1;stroke:none" /><rect
                 y="500.80005"
                 x="-192.67342"
                 height="7.6664572"
                 width="12.249819"
                 id="rect5934"
                 style="fill:#ffffff;fill-opacity:1;stroke:none" /><rect
                 y="500.80005"
                 x="-180.42358"
                 height="7.6664572"
                 width="12.249819"
                 id="rect5936"
                 style="fill:#66696d;fill-opacity:1;stroke:none" /></g><rect
               style="fill:#ffffff;fill-opacity:1;stroke:none"
               id="rect5938"
               width="12.249819"
               height="7.6664572"
               x="-168.17377"
               y="500.80005" /></g><g
             transform="translate(97.998552)"
             id="g5940"><rect
               y="500.80005"
               x="-253.9225"
               height="7.6664572"
               width="12.249819"
               id="rect5942"
               style="fill:#66696d;fill-opacity:1;stroke:none" /></g></g></g><rect
         y="506.06491"
         x="-253.9225"
         height="1.2279032"
         width="85.401497"
         id="rect5944"
         style="fill:#66696d;fill-opacity:1;fill-rule:nonzero;stroke:none" /></g><path
       style="fill:none;stroke:#66696d;stroke-width:1.528;stroke-miterlimit:4;stroke-dashoffset:0;stroke-opacity:1"
       d="m 696.06823,319.77064 2.36354,-1.76628"
       id="rect6461"
       inkscape:connector-curvature="0"
       sodipodi:nodetypes="cc" /><path
       style="fill:none;stroke:#66696d;stroke-width:1.528;stroke-miterlimit:4;stroke-dashoffset:0;stroke-opacity:1"
       d="m 699.56821,324.20813 3.86354,-2.39128"
       id="rect6461-6"
       inkscape:connector-curvature="0"
       sodipodi:nodetypes="cc" /></g></svg>