<?xml version="1.0" encoding="UTF-8" standalone="no"?>
<!-- Generator: Adobe Illustrator 21.0.2, SVG Export Plug-In . SVG Version: 6.00 Build 0)  -->

<svg
   xmlns:dc="http://purl.org/dc/elements/1.1/"
   xmlns:cc="http://creativecommons.org/ns#"
   xmlns:rdf="http://www.w3.org/1999/02/22-rdf-syntax-ns#"
   xmlns:svg="http://www.w3.org/2000/svg"
   xmlns="http://www.w3.org/2000/svg"
   xmlns:sodipodi="http://sodipodi.sourceforge.net/DTD/sodipodi-0.dtd"
   xmlns:inkscape="http://www.inkscape.org/namespaces/inkscape"
   version="1.1"
   id="Ebene_1"
   x="0px"
   y="0px"
   viewBox="0 0 210.47795 141.98991"
   xml:space="preserve"
   inkscape:version="0.92.3 (2405546, 2018-03-11)"
   width="210.47795"
   height="141.98991"
   sodipodi:docname="sketch_handeye_calib_robotmounted_de.svg"
   inkscape:export-filename="/home/stelzer/doc/sensor_manual/source/images/sketch_handeye_calib_robotmounted_de.png"
   inkscape:export-xdpi="300"
   inkscape:export-ydpi="300"><metadata
   id="metadata69"><rdf:RDF><cc:Work
       rdf:about=""><dc:format>image/svg+xml</dc:format><dc:type
         rdf:resource="http://purl.org/dc/dcmitype/StillImage" /><dc:title>ico_robot_inactive</dc:title></cc:Work></rdf:RDF></metadata><defs
   id="defs67"><inkscape:perspective
   sodipodi:type="inkscape:persp3d"
   inkscape:vp_x="0 : 0.40487168 : 1"
   inkscape:vp_y="0 : 2.020822 : 0"
   inkscape:vp_z="0.31857008 : 0.40487168 : 1"
   inkscape:persp3d-origin="0.15928504 : 0.26991446 : 1"
   id="perspective6593" /><marker
   inkscape:stockid="Arrow2Mend"
   orient="auto"
   refY="0"
   refX="0"
   id="Arrow2Mend"
   style="overflow:visible"><path
     id="path3830"
     style="fill-rule:evenodd;stroke-width:0.625;stroke-linejoin:round"
     d="M 8.7185878,4.0337352 -2.2072895,0.01601326 8.7185884,-4.0017078 c -1.7454984,2.3720609 -1.7354408,5.6174519 -6e-7,8.035443 z"
     transform="scale(-0.6)"
     inkscape:connector-curvature="0" /></marker><marker
   inkscape:stockid="Arrow1Lstart"
   orient="auto"
   refY="0"
   refX="0"
   id="Arrow1Lstart"
   style="overflow:visible"><path
     id="path3803"
     d="M 0,0 5,-5 -12.5,0 5,5 Z"
     style="fill-rule:evenodd;stroke:#000000;stroke-width:1.00000003pt"
     transform="matrix(0.8,0,0,0.8,10,0)"
     inkscape:connector-curvature="0" /></marker><marker
   inkscape:stockid="Arrow2Mstart"
   orient="auto"
   refY="0"
   refX="0"
   id="Arrow2Mstart"
   style="overflow:visible"><path
     id="path3827"
     style="fill-rule:evenodd;stroke-width:0.625;stroke-linejoin:round"
     d="M 8.7185878,4.0337352 -2.2072895,0.01601326 8.7185884,-4.0017078 c -1.7454984,2.3720609 -1.7354408,5.6174519 -6e-7,8.035443 z"
     transform="scale(0.6)"
     inkscape:connector-curvature="0" /></marker><marker
   inkscape:stockid="Arrow2Mstart"
   orient="auto"
   refY="0"
   refX="0"
   id="Arrow2Mstart-6"
   style="overflow:visible"><path
     inkscape:connector-curvature="0"
     id="path3827-7"
     style="fill-rule:evenodd;stroke-width:0.625;stroke-linejoin:round"
     d="M 8.7185878,4.0337352 -2.2072895,0.01601326 8.7185884,-4.0017078 c -1.7454984,2.3720609 -1.7354408,5.6174519 -6e-7,8.035443 z"
     transform="scale(0.6)" /></marker><marker
   inkscape:stockid="Arrow2Mstart"
   orient="auto"
   refY="0"
   refX="0"
   id="Arrow2Mstart-3"
   style="overflow:visible"><path
     inkscape:connector-curvature="0"
     id="path3827-5"
     style="fill-rule:evenodd;stroke-width:0.625;stroke-linejoin:round"
     d="M 8.7185878,4.0337352 -2.2072895,0.01601326 8.7185884,-4.0017078 c -1.7454984,2.3720609 -1.7354408,5.6174519 -6e-7,8.035443 z"
     transform="scale(0.6)" /></marker><marker
   inkscape:stockid="Arrow2Mstart"
   orient="auto"
   refY="0"
   refX="0"
   id="Arrow2Mstart-2"
   style="overflow:visible"><path
     inkscape:connector-curvature="0"
     id="path3827-9"
     style="fill-rule:evenodd;stroke-width:0.625;stroke-linejoin:round"
     d="M 8.7185878,4.0337352 -2.2072895,0.01601326 8.7185884,-4.0017078 c -1.7454984,2.3720609 -1.7354408,5.6174519 -6e-7,8.035443 z"
     transform="scale(0.6)" /></marker><marker
   inkscape:stockid="Arrow2Mstart"
   orient="auto"
   refY="0"
   refX="0"
   id="marker4295"
   style="overflow:visible"><path
     inkscape:connector-curvature="0"
     id="path4297"
     style="fill-rule:evenodd;stroke-width:0.625;stroke-linejoin:round"
     d="M 8.7185878,4.0337352 -2.2072895,0.01601326 8.7185884,-4.0017078 c -1.7454984,2.3720609 -1.7354408,5.6174519 -6e-7,8.035443 z"
     transform="scale(0.6)" /></marker><marker
   inkscape:stockid="Arrow2Mstart"
   orient="auto"
   refY="0"
   refX="0"
   id="marker4299"
   style="overflow:visible"><path
     inkscape:connector-curvature="0"
     id="path4301"
     style="fill-rule:evenodd;stroke-width:0.625;stroke-linejoin:round"
     d="M 8.7185878,4.0337352 -2.2072895,0.01601326 8.7185884,-4.0017078 c -1.7454984,2.3720609 -1.7354408,5.6174519 -6e-7,8.035443 z"
     transform="scale(0.6)" /></marker><marker
   inkscape:stockid="Arrow2Mstart"
   orient="auto"
   refY="0"
   refX="0"
   id="Arrow2Mstart-9"
   style="overflow:visible"><path
     inkscape:connector-curvature="0"
     id="path3827-3"
     style="fill-rule:evenodd;stroke-width:0.625;stroke-linejoin:round"
     d="M 8.7185878,4.0337352 -2.2072895,0.01601326 8.7185884,-4.0017078 c -1.7454984,2.3720609 -1.7354408,5.6174519 -6e-7,8.035443 z"
     transform="scale(0.6)" /></marker><marker
   inkscape:stockid="Arrow2Mstart"
   orient="auto"
   refY="0"
   refX="0"
   id="marker4295-6"
   style="overflow:visible"><path
     inkscape:connector-curvature="0"
     id="path4297-0"
     style="fill-rule:evenodd;stroke-width:0.625;stroke-linejoin:round"
     d="M 8.7185878,4.0337352 -2.2072895,0.01601326 8.7185884,-4.0017078 c -1.7454984,2.3720609 -1.7354408,5.6174519 -6e-7,8.035443 z"
     transform="scale(0.6)" /></marker><marker
   inkscape:stockid="Arrow2Mstart"
   orient="auto"
   refY="0"
   refX="0"
   id="marker4299-6"
   style="overflow:visible"><path
     inkscape:connector-curvature="0"
     id="path4301-2"
     style="fill-rule:evenodd;stroke-width:0.625;stroke-linejoin:round"
     d="M 8.7185878,4.0337352 -2.2072895,0.01601326 8.7185884,-4.0017078 c -1.7454984,2.3720609 -1.7354408,5.6174519 -6e-7,8.035443 z"
     transform="scale(0.6)" /></marker><marker
   inkscape:stockid="Arrow2Mstart"
   orient="auto"
   refY="0"
   refX="0"
   id="Arrow2Mstart-92"
   style="overflow:visible"><path
     inkscape:connector-curvature="0"
     id="path3827-0"
     style="fill-rule:evenodd;stroke-width:0.625;stroke-linejoin:round"
     d="M 8.7185878,4.0337352 -2.2072895,0.01601326 8.7185884,-4.0017078 c -1.7454984,2.3720609 -1.7354408,5.6174519 -6e-7,8.035443 z"
     transform="scale(0.6)" /></marker><marker
   inkscape:stockid="Arrow2Mstart"
   orient="auto"
   refY="0"
   refX="0"
   id="marker4369"
   style="overflow:visible"><path
     inkscape:connector-curvature="0"
     id="path4371"
     style="fill-rule:evenodd;stroke-width:0.625;stroke-linejoin:round"
     d="M 8.7185878,4.0337352 -2.2072895,0.01601326 8.7185884,-4.0017078 c -1.7454984,2.3720609 -1.7354408,5.6174519 -6e-7,8.035443 z"
     transform="scale(0.6)" /></marker><marker
   inkscape:stockid="Arrow2Mstart"
   orient="auto"
   refY="0"
   refX="0"
   id="marker4373"
   style="overflow:visible"><path
     inkscape:connector-curvature="0"
     id="path4375"
     style="fill-rule:evenodd;stroke-width:0.625;stroke-linejoin:round"
     d="M 8.7185878,4.0337352 -2.2072895,0.01601326 8.7185884,-4.0017078 c -1.7454984,2.3720609 -1.7354408,5.6174519 -6e-7,8.035443 z"
     transform="scale(0.6)" /></marker><marker
   inkscape:stockid="Arrow2Mstart"
   orient="auto"
   refY="0"
   refX="0"
   id="marker4373-9"
   style="overflow:visible"><path
     inkscape:connector-curvature="0"
     id="path4375-2"
     style="fill-rule:evenodd;stroke-width:0.625;stroke-linejoin:round"
     d="M 8.7185878,4.0337352 -2.2072895,0.01601326 8.7185884,-4.0017078 c -1.7454984,2.3720609 -1.7354408,5.6174519 -6e-7,8.035443 z"
     transform="scale(0.6)" /></marker><marker
   inkscape:stockid="Arrow2Mend"
   orient="auto"
   refY="0"
   refX="0"
   id="Arrow2Mend-2"
   style="overflow:visible"><path
     inkscape:connector-curvature="0"
     id="path3830-8"
     style="fill-rule:evenodd;stroke-width:0.625;stroke-linejoin:round"
     d="M 8.7185878,4.0337352 -2.2072895,0.01601326 8.7185884,-4.0017078 c -1.7454984,2.3720609 -1.7354408,5.6174519 -6e-7,8.035443 z"
     transform="scale(-0.6)" /></marker><marker
   inkscape:stockid="Arrow2Mstart"
   orient="auto"
   refY="0"
   refX="0"
   id="marker4373-2"
   style="overflow:visible"><path
     inkscape:connector-curvature="0"
     id="path4375-9"
     style="fill-rule:evenodd;stroke-width:0.625;stroke-linejoin:round"
     d="M 8.7185878,4.0337352 -2.2072895,0.01601326 8.7185884,-4.0017078 c -1.7454984,2.3720609 -1.7354408,5.6174519 -6e-7,8.035443 z"
     transform="scale(0.6)" /></marker><marker
   inkscape:stockid="Arrow2Mend"
   orient="auto"
   refY="0"
   refX="0"
   id="Arrow2Mend-1"
   style="overflow:visible"><path
     inkscape:connector-curvature="0"
     id="path3830-2"
     style="fill-rule:evenodd;stroke-width:0.625;stroke-linejoin:round"
     d="M 8.7185878,4.0337352 -2.2072895,0.01601326 8.7185884,-4.0017078 c -1.7454984,2.3720609 -1.7354408,5.6174519 -6e-7,8.035443 z"
     transform="scale(-0.6)" /></marker><marker
   inkscape:stockid="Arrow2Mstart"
   orient="auto"
   refY="0"
   refX="0"
   id="marker4373-4"
   style="overflow:visible"><path
     inkscape:connector-curvature="0"
     id="path4375-99"
     style="fill-rule:evenodd;stroke-width:0.625;stroke-linejoin:round"
     d="M 8.7185878,4.0337352 -2.2072895,0.01601326 8.7185884,-4.0017078 c -1.7454984,2.3720609 -1.7354408,5.6174519 -6e-7,8.035443 z"
     transform="scale(0.6)" /></marker><marker
   inkscape:stockid="Arrow2Mend"
   orient="auto"
   refY="0"
   refX="0"
   id="Arrow2Mend-9"
   style="overflow:visible"><path
     inkscape:connector-curvature="0"
     id="path3830-4"
     style="fill-rule:evenodd;stroke-width:0.625;stroke-linejoin:round"
     d="M 8.7185878,4.0337352 -2.2072895,0.01601326 8.7185884,-4.0017078 c -1.7454984,2.3720609 -1.7354408,5.6174519 -6e-7,8.035443 z"
     transform="scale(-0.6)" /></marker><clipPath
   clipPathUnits="userSpaceOnUse"
   id="clipPath5280"><rect
     style="fill:#e6e6e7;fill-opacity:0.28767126;fill-rule:nonzero;stroke:none"
     id="rect5282"
     width="61.13084"
     height="44.350056"
     x="-317.88129"
     y="48.992893"
     ry="1.3876112" /></clipPath><clipPath
   clipPathUnits="userSpaceOnUse"
   id="clipPath5291"><path
     style="fill:#e6e6e7;fill-opacity:0.28767126;fill-rule:nonzero;stroke:none"
     d="m -274.78501,25.385653 0.376,30.598725 -42.13017,15.375665 c -0.97024,0 -0.625,-55.848725 -0.625,-55.848725 0,-0.970237 42.37884,9.874335 42.37884,9.874335 z"
     id="path5293"
     inkscape:connector-curvature="0"
     sodipodi:nodetypes="cccccc" /></clipPath><clipPath
   clipPathUnits="userSpaceOnUse"
   id="clipPath5303"><path
     sodipodi:nodetypes="cccccc"
     inkscape:connector-curvature="0"
     id="path5305"
     d="m -340.19598,55.332907 -0.38143,30.840597 42.73899,15.497196 c 0.98427,0 0.63404,-56.290179 0.63404,-56.290179 0,-0.977907 -42.99126,9.952386 -42.99126,9.952386 z"
     style="fill:#e6e6e7;fill-opacity:0.28767126;fill-rule:nonzero;stroke:none" /></clipPath><clipPath
   clipPathUnits="userSpaceOnUse"
   id="clipPath5307"><path
     style="fill:#616165;fill-opacity:0.74885846;fill-rule:nonzero;stroke:none"
     d="m -192.57786,176.05694 40.35251,-0.0591 c 0.98427,0 13.18518,-32.42533 13.18518,-32.42533 l -65.08834,0.0529 z"
     id="path5309"
     inkscape:connector-curvature="0"
     sodipodi:nodetypes="ccccc" /></clipPath><marker
   inkscape:stockid="Arrow2Mend"
   orient="auto"
   refY="0"
   refX="0"
   id="Arrow2Mend-9-5"
   style="overflow:visible"><path
     inkscape:connector-curvature="0"
     id="path3830-4-0"
     style="fill-rule:evenodd;stroke-width:0.625;stroke-linejoin:round"
     d="M 8.7185878,4.0337352 -2.2072895,0.01601326 8.7185884,-4.0017078 c -1.7454984,2.3720609 -1.7354408,5.6174519 -6e-7,8.035443 z"
     transform="scale(-0.6)" /></marker><clipPath
   clipPathUnits="userSpaceOnUse"
   id="clipPath5742"><rect
     style="fill:none;stroke:#66696d;stroke-width:1.528;stroke-miterlimit:4;stroke-dasharray:none;stroke-dashoffset:0;stroke-opacity:1"
     id="rect5744"
     width="135.05733"
     height="112.43"
     x="143.54271"
     y="651.01575" /></clipPath><clipPath
   clipPathUnits="userSpaceOnUse"
   id="clipPath6619"><rect
     y="195.70236"
     x="608.13409"
     height="113.22748"
     width="151.15645"
     id="rect6621"
     style="fill:none;stroke:#66696d;stroke-width:1.53273737;stroke-miterlimit:4;stroke-dasharray:none;stroke-dashoffset:0;stroke-opacity:1" /></clipPath><clipPath
   clipPathUnits="userSpaceOnUse"
   id="clipPath5291-3"><path
     style="fill:#e6e6e7;fill-opacity:0.28767126;fill-rule:nonzero;stroke:none"
     d="m -274.78501,25.385653 0.376,30.598725 -42.13017,15.375665 c -0.97024,0 -0.625,-55.848725 -0.625,-55.848725 0,-0.970237 42.37884,9.874335 42.37884,9.874335 z"
     id="path5293-5"
     inkscape:connector-curvature="0"
     sodipodi:nodetypes="cccccc" /></clipPath>








</defs><sodipodi:namedview
   pagecolor="#ffffff"
   bordercolor="#666666"
   borderopacity="1"
   objecttolerance="10"
   gridtolerance="10"
   guidetolerance="10"
   inkscape:pageopacity="0"
   inkscape:pageshadow="2"
   inkscape:window-width="1853"
   inkscape:window-height="1025"
   id="namedview65"
   showgrid="false"
   inkscape:zoom="5.6568544"
   inkscape:cx="94.401812"
   inkscape:cy="71.661465"
   inkscape:window-x="67"
   inkscape:window-y="27"
   inkscape:window-maximized="1"
   inkscape:current-layer="Ebene_1"
   showguides="true"
   inkscape:guide-bbox="true"
   fit-margin-top="0"
   fit-margin-left="0"
   fit-margin-right="0"
   fit-margin-bottom="0"><inkscape:grid
     type="xygrid"
     id="grid6482"
     empspacing="5"
     visible="true"
     enabled="true"
     snapvisiblegridlinesonly="true"
     originx="-55.13301"
     originy="-241.64451"
     spacingx="1.0666667"
     spacingy="1.0666666" /></sodipodi:namedview><style
   type="text/css"
   id="style3">
	.st0{fill:#FFFFFF;}
	.st1{fill:#66696D;}
	.st2{fill:#FFFFFF;stroke:#66696D;stroke-width:3;stroke-linejoin:round;}
	.st3{fill:#FFFFFF;stroke:#66696D;stroke-width:2;stroke-linejoin:round;}
	.st4{fill:none;stroke:#66696D;stroke-width:2;stroke-linejoin:round;}
	.st5{fill:none;stroke:#66696D;stroke-width:1.5;stroke-linecap:round;stroke-linejoin:round;}
	.st6{fill:none;stroke:#66696D;stroke-width:5;stroke-linejoin:round;}
	.st7{fill:none;stroke:#66696D;stroke-width:2;stroke-linecap:round;stroke-linejoin:round;}
	.st8{fill:#FFFFFF;stroke:#66696D;stroke-width:5;stroke-linejoin:round;}
</style><title
   id="title5">ico_robot_inactive</title><path
   style="fill:#e6e6e7;fill-opacity:1;stroke:none"
   d="m 90.958,137.41327 32.1553,-94.66522 84.6171,58.10184 c 0,0 -43.12599,56.33798 -116.7724,36.56338 z"
   id="path8346"
   inkscape:connector-curvature="0"
   sodipodi:nodetypes="cccc"
   inkscape:transform-center-x="-26.2309"
   inkscape:transform-center-y="49.436648" /><g
   transform="rotate(-42.286407,-102.05841,270.60834)"
   inkscape:transform-center-y="-32.223138"
   inkscape:transform-center-x="-16.550634"
   id="g4559"><g
     id="g4561"
     inkscape:transform-center-x="-49.975118"
     transform="rotate(48.520962,155.8604,159.43382)"
     inkscape:transform-center-y="25.936046"><g
       inkscape:transform-center-y="8.6681498"
       transform="rotate(57.828479,239.97554,169.98549)"
       inkscape:transform-center-x="-14.309772"
       id="g4563"><rect
         style="fill:#ffffff"
         id="rect4565"
         height="14.800385"
         width="10.900283"
         class="st0"
         transform="rotate(-85.138233)"
         y="254.0038"
         x="-154.63242" /><path
         style="fill:#66696d"
         inkscape:connector-curvature="0"
         id="path4567"
         d="m 242.39596,166.62946 11.3578,1.0002 -0.61852,7.38359 -11.3578,-1.00019 z m -3.07669,-3.67477 -1.18806,14.2309 18.08073,1.50243 1.18805,-14.2309 z"
         class="st1" /><path
         style="fill:#ffffff;stroke:#66696d;stroke-width:2;stroke-linejoin:round"
         inkscape:connector-curvature="0"
         id="path4569"
         d="m 282.38342,162.86071 -14.71393,-3.86138 c -0.84212,-0.37528 -1.82907,-0.18573 -2.60603,0.35865 l -9.19906,6.59979 c -1.29492,0.90729 -1.70087,2.6976 -0.98526,4.0496 l 0.15292,0.16315 c 1.07044,1.142 2.89951,1.32772 4.16589,0.32459 l 8.25897,-5.9025 14.46134,0.91075 c 0.63213,0.0205 1.34178,-0.39954 1.42953,-1.15605 v 0 c 0.11629,-0.66066 -0.39955,-1.34177 -0.96437,-1.4866 z"
         class="st3" /><path
         style="fill:#ffffff;stroke:#66696d;stroke-width:2;stroke-linejoin:round"
         inkscape:connector-curvature="0"
         id="path4571"
         d="m 278.76991,187.5174 -13.98596,-3.86947 -5.9025,-8.25896 c -0.87876,-1.19908 -2.58345,-1.31751 -3.68669,-0.46729 0,0 0,0 -0.0958,0.0285 l -0.16314,0.15291 c -1.13178,0.75438 -1.49896,2.32446 -0.74459,3.45624 0.0285,0.0958 0.0285,0.0958 0.0571,0.19169 l 6.5998,9.19906 c 0.54437,0.77695 1.3865,1.15222 2.30614,1.08705 l 15.27493,1.19019 c 0.63213,0.0204 1.16032,-0.65853 1.48661,-0.96437 v 0 c -0.39955,-1.34177 -0.48516,-1.6293 -1.14583,-1.74559 z"
         class="st3" /><g
         id="g4573"
         transform="rotate(-16.58216,198.74676,118.95387)"><rect
           style="fill:#ffffff;stroke:#66696d;stroke-width:2;stroke-linejoin:round"
           id="rect4575"
           height="21.200001"
           width="8.1999998"
           class="st3"
           transform="matrix(0.8997,0.4366,-0.4366,0.8997,95.0245,-89.3523)"
           y="151.5"
           x="237.8" /><line
           style="fill:none;stroke:#66696d;stroke-width:1.5;stroke-linecap:round;stroke-linejoin:round"
           id="line4577"
           y2="151"
           x2="243"
           y1="148.2"
           x1="237.10001"
           class="st5" /><line
           style="fill:none;stroke:#66696d;stroke-width:1.5;stroke-linecap:round;stroke-linejoin:round"
           id="line4579"
           y2="153.39999"
           x2="241.8"
           y1="150.60001"
           x1="235.89999"
           class="st5" /><line
           style="fill:none;stroke:#66696d;stroke-width:1.5;stroke-linecap:round;stroke-linejoin:round"
           id="line4581"
           y2="155.8"
           x2="240.39999"
           y1="153"
           x1="234.7"
           class="st5" /><line
           style="fill:none;stroke:#66696d;stroke-width:1.5;stroke-linecap:round;stroke-linejoin:round"
           id="line4583"
           y2="158.3"
           x2="239.39999"
           y1="155.39999"
           x1="233.60001"
           class="st5" /><rect
           style="fill:none;stroke:#66696d;stroke-width:2;stroke-linejoin:round"
           id="rect4585"
           height="7.3000002"
           width="6.1999998"
           class="st4"
           transform="matrix(0.8997,0.4366,-0.4366,0.8997,97.1532,-91.9974)"
           y="161.7"
           x="245.60001" /></g><rect
         style="fill:none;stroke:#66696d;stroke-width:2.00007963;stroke-linejoin:round"
         id="rect4587"
         height="3.9001553"
         width="2.9001155"
         class="st4"
         transform="rotate(9.3038806)"
         y="117.32658"
         x="271.05792" /></g><path
       class="st2"
       d="m 245.68737,163.66692 c -2.83732,-3.47136 -7.92812,-4.26949 -11.83873,-4.71754 -5.77474,-0.47156 -21.89988,-2.76498 -21.89988,-2.76498 l -44.51155,-4.06595 -9.62457,-0.78593 -1.99229,23.44356 11.43319,1.60378 c 3.84982,0.31438 47.67429,3.1715 53.39197,3.40404 5.71768,0.23254 9.27029,0.29134 14.82639,0.38469 5.5561,0.0934 11.71156,-4.76387 12.23148,-9.38087 0.30202,-2.48974 -0.46853,-5.07745 -2.01604,-7.12079 z"
       id="path4589"
       inkscape:connector-curvature="0"
       style="fill:#ffffff;stroke:#66696d;stroke-width:3;stroke-linejoin:round"
       sodipodi:nodetypes="ccccccczzccc" /><line
       class="st4"
       x1="186.57001"
       y1="177.82733"
       x2="188.80298"
       y2="153.79041"
       id="line4591"
       style="fill:none;stroke:#66696d;stroke-width:2;stroke-linejoin:round" /></g><path
     style="fill:#ffffff;stroke:#66696d;stroke-width:3;stroke-linejoin:round"
     inkscape:connector-curvature="0"
     id="path4593"
     d="m 134.88354,182.41158 c 0,0 -12.2747,33.53001 -21.42066,43.80188 l 0.0986,0.10139 c -1.82665,1.87439 -3.25898,4.15439 -4.29278,6.54004 -4.4549,10.93818 4.5171,20.06579 15.55527,24.5221 11.03819,4.45632 11.79177,0.66658 16.34667,-10.2702 1.44786,-3.37989 7.23882,-2.69804 6.88686,-6.10335 0.45221,-3.69399 0.50446,-7.39361 0.35673,-11.09607 -1.17648,-22.9189 18.85596,-39.23765 18.85596,-39.23765 4.34758,-3.33894 7.6108,-7.7933 9.48406,-12.96737 4.04082,-9.94393 -0.69913,-21.312 -10.64306,-25.35282 -9.94393,-4.04082 -21.312,0.69913 -25.35282,10.64306 v 0 c -1.13943,2.78419 -2.08029,5.67119 -2.82258,8.661 -0.74654,3.28979 -3.05222,10.75798 -3.05222,10.75798 z"
     class="st2" /><path
     style="fill:#ffffff;stroke:#66696d;stroke-width:2;stroke-linejoin:round"
     inkscape:connector-curvature="0"
     id="path4595"
     d="m 163.73796,157.51655 c -6.96118,-2.79858 -14.9084,0.48953 -17.70698,7.4507 -0.72534,1.78994 -1.35212,3.68128 -1.77891,5.57544 -1.72127,8.57654 0.76832,16.41248 6.43669,18.69275 6.95976,2.89857 16.04924,-3.3737 20.4999,-14.01192 2.79717,-6.86118 -0.49093,-14.80841 -7.4507,-17.70697 z"
     class="st3" /></g><path
   class="st2"
   d="m 61.90689,118.25978 c 0,-5.7 2.5,-9.1 4.5,-12 8.1,-8.5 7.9,-21.9 -0.6,-30.1 -8.5,-8.2 -21.9,-7.9 -30.1,0.6 -1.6,1.7 -3,3.7 -4,5.8 v 0 c -4.5,9.1 -5.1,9.7 -7.7,28.5 0,0 -1,7.8 -6.7,7.8 v 16.9 h 57.8 v -4 c 0.2,0.1 -13.2,-4.5 -13.2,-13.5 z"
   id="path4597"
   inkscape:connector-curvature="0"
   style="fill:#ffffff;stroke:#66696d;stroke-width:3;stroke-linejoin:round" /><path
   sodipodi:nodetypes="cc"
   style="fill:#ffffff;stroke:#66696d;stroke-width:6.95315981;stroke-linejoin:round;stroke-miterlimit:4;stroke-dasharray:none"
   inkscape:connector-curvature="0"
   id="path4603"
   d="M 193.28956,138.51333 H 0"
   class="st3" /><g
   inkscape:transform-center-y="8.4489401"
   inkscape:transform-center-x="5.4450018"
   transform="rotate(162.1472,145.86628,186.77297)"
   id="g4613"><path
     class="st3"
     d="m 139.91393,330.46768 h -17.0285"
     id="path4615"
     inkscape:connector-curvature="0"
     style="fill:#ffffff;stroke:#000000;stroke-width:0.99999994;stroke-linejoin:round;stroke-miterlimit:4;stroke-dasharray:none;stroke-opacity:1;marker-start:url(#Arrow2Mstart)"
     sodipodi:nodetypes="cc" /><path
     class="st3"
     d="m 123.36955,313.80964 v 17.0285"
     id="path4617"
     inkscape:connector-curvature="0"
     style="fill:#ffffff;stroke:#000000;stroke-width:0.99999988;stroke-linejoin:round;stroke-miterlimit:4;stroke-dasharray:none;stroke-opacity:1;marker-start:url(#Arrow2Mstart)"
     sodipodi:nodetypes="cc" /><path
     class="st3"
     d="m 132.13694,319.11215 -8.80648,11.64621"
     id="path4619"
     inkscape:connector-curvature="0"
     style="fill:#ffffff;stroke:#000000;stroke-width:0.99999994;stroke-linejoin:round;stroke-miterlimit:4;stroke-dasharray:none;stroke-opacity:1;marker-start:url(#Arrow2Mstart)"
     sodipodi:nodetypes="cc" /></g><g
   inkscape:transform-center-y="-8.0615367"
   inkscape:transform-center-x="7.8562204"
   transform="matrix(-0.99999982,5.8771357e-4,5.8771357e-4,0.99999982,165.02881,-196.77985)"
   id="g4621"><path
     class="st3"
     d="m 139.91393,330.46768 h -17.0285"
     id="path4623"
     inkscape:connector-curvature="0"
     style="fill:#ffffff;stroke:#000000;stroke-width:0.99999994;stroke-linejoin:round;stroke-miterlimit:4;stroke-dasharray:none;stroke-opacity:1;marker-start:url(#Arrow2Mstart)"
     sodipodi:nodetypes="cc" /><path
     class="st3"
     d="m 123.36955,313.80964 v 17.0285"
     id="path4625"
     inkscape:connector-curvature="0"
     style="fill:#ffffff;stroke:#000000;stroke-width:0.99999988;stroke-linejoin:round;stroke-miterlimit:4;stroke-dasharray:none;stroke-opacity:1;marker-start:url(#Arrow2Mstart)"
     sodipodi:nodetypes="cc" /><path
     class="st3"
     d="m 132.13694,319.11215 -8.80648,11.64621"
     id="path4627"
     inkscape:connector-curvature="0"
     style="fill:#ffffff;stroke:#000000;stroke-width:0.99999994;stroke-linejoin:round;stroke-miterlimit:4;stroke-dasharray:none;stroke-opacity:1;marker-start:url(#Arrow2Mstart)"
     sodipodi:nodetypes="cc" /></g><g
   inkscape:transform-center-y="6.6360707"
   inkscape:transform-center-x="-8.9511336"
   transform="rotate(74.414014,284.95782,191.86766)"
   id="g4629"><path
     class="st3"
     d="m 139.91393,330.46768 h -17.0285"
     id="path4631"
     inkscape:connector-curvature="0"
     style="fill:#ffffff;stroke:#000000;stroke-width:0.99999994;stroke-linejoin:round;stroke-miterlimit:4;stroke-dasharray:none;stroke-opacity:1;marker-start:url(#Arrow2Mstart)"
     sodipodi:nodetypes="cc" /><path
     class="st3"
     d="m 123.36955,313.80964 v 17.0285"
     id="path4633"
     inkscape:connector-curvature="0"
     style="fill:#ffffff;stroke:#000000;stroke-width:0.99999988;stroke-linejoin:round;stroke-miterlimit:4;stroke-dasharray:none;stroke-opacity:1;marker-start:url(#Arrow2Mstart)"
     sodipodi:nodetypes="cc" /><path
     class="st3"
     d="m 132.13694,319.11215 -8.80648,11.64621"
     id="path4635"
     inkscape:connector-curvature="0"
     style="fill:#ffffff;stroke:#000000;stroke-width:0.99999994;stroke-linejoin:round;stroke-miterlimit:4;stroke-dasharray:none;stroke-opacity:1;marker-start:url(#Arrow2Mstart)"
     sodipodi:nodetypes="cc" /></g><path
   sodipodi:nodetypes="cc"
   inkscape:connector-curvature="0"
   id="path4637"
   d="m 132.406,76.54625 c 25.01519,-3.1675 10.03941,-21.75956 10.03941,-21.75956"
   style="fill:none;stroke:#000000;stroke-width:0.49999997;stroke-linecap:butt;stroke-linejoin:miter;stroke-miterlimit:4;stroke-dasharray:0.49999998, 0.99999997;stroke-dashoffset:0;stroke-opacity:1;marker-start:url(#marker4373);marker-end:none" /><text
   id="text4641"
   y="91.845749"
   x="116.39823"
   style="font-style:italic;font-weight:normal;line-height:0%;font-family:sans-serif;-inkscape-font-specification:'Sans Italic';letter-spacing:0px;word-spacing:0px;fill:#000000;fill-opacity:1;stroke:none"
   xml:space="preserve"><tspan
     y="91.845749"
     x="116.39823"
     id="tspan4643"
     sodipodi:role="line"
     style="font-size:9.48746109px;line-height:1.25;font-family:sans-serif">Roboter</tspan></text>
<text
   id="text4645"
   y="131.41096"
   x="45.038857"
   style="font-style:italic;font-weight:normal;line-height:0%;font-family:sans-serif;-inkscape-font-specification:'Sans Italic';letter-spacing:0px;word-spacing:0px;fill:#000000;fill-opacity:1;stroke:none"
   xml:space="preserve"><tspan
     y="131.41096"
     x="45.038857"
     id="tspan4647"
     sodipodi:role="line"
     style="font-size:9.48746109px;line-height:1.25;font-family:sans-serif">ext</tspan></text>
<g
   transform="translate(-21.92039,-82.52615)"
   id="g4649"><text
   xml:space="preserve"
   style="font-style:italic;font-weight:normal;line-height:0%;font-family:sans-serif;-inkscape-font-specification:'Sans Italic';letter-spacing:0px;word-spacing:0px;fill:#000000;fill-opacity:1;stroke:none"
   x="154.88649"
   y="129.45235"
   id="text4651"><tspan
     sodipodi:role="line"
     id="tspan4653"
     x="154.88649"
     y="129.45235"
     style="font-size:9.48746109px;line-height:1.25;font-family:sans-serif">Kamera</tspan></text>



</g><path
   sodipodi:nodetypes="cc"
   inkscape:connector-curvature="0"
   id="path4669"
   d="M 100.42092,85.92041 C 57.96271,93.12323 51.48504,111.16429 51.48504,111.16429"
   style="fill:none;stroke:#000000;stroke-width:0.59999996;stroke-linecap:butt;stroke-linejoin:miter;stroke-miterlimit:4;stroke-dasharray:none;stroke-dashoffset:0;stroke-opacity:1;marker-start:none;marker-end:url(#Arrow2Mend-9-5)" /><g
   transform="translate(-342.32995,-41.8127)"
   id="g4671"><g
     id="g4673"
     transform="translate(264.42848,14.106854)"><text
   xml:space="preserve"
   style="font-style:italic;font-weight:normal;line-height:0%;font-family:sans-serif;-inkscape-font-specification:'Sans Italic';letter-spacing:0px;word-spacing:0px;fill:#000000;fill-opacity:1;stroke:none"
   x="154.88649"
   y="129.45235"
   id="text4675"><tspan
     style="font-style:normal;font-weight:bold;font-size:9.48746109px;line-height:1.25;font-family:sans-serif;-inkscape-font-specification:'Sans Bold'"
     sodipodi:role="line"
     id="tspan4677"
     x="154.88649"
     y="129.45235">T</tspan></text>



<g
   transform="translate(0.0836048,0.2958226)"
   id="g4679"><text
   id="text4681"
   y="130.16147"
   x="161.78801"
   style="font-style:italic;font-weight:normal;line-height:0%;font-family:sans-serif;-inkscape-font-specification:'Sans Italic';letter-spacing:0px;word-spacing:0px;fill:#000000;fill-opacity:1;stroke:none"
   xml:space="preserve"><tspan
     y="130.16147"
     x="161.78801"
     id="tspan4683"
     sodipodi:role="line"
     style="font-size:4.15213203px;line-height:1.25;font-family:sans-serif">robot</tspan></text>



<text
   id="text4685"
   y="124.25805"
   x="161.78801"
   style="font-style:italic;font-weight:normal;line-height:0%;font-family:sans-serif;-inkscape-font-specification:'Sans Italic';letter-spacing:0px;word-spacing:0px;fill:#000000;fill-opacity:1;stroke:none"
   xml:space="preserve"><tspan
     y="124.25805"
     x="161.78801"
     id="tspan4687"
     sodipodi:role="line"
     style="font-size:4.15213203px;line-height:1.25;font-family:sans-serif">ext</tspan></text>



</g></g></g><g
   id="g4707"
   transform="translate(-268.35255,-77.80649)"><g
     transform="translate(264.42848,14.106854)"
     id="g4709"><text
   id="text4711"
   y="129.45235"
   x="154.88649"
   style="font-style:italic;font-weight:normal;line-height:0%;font-family:sans-serif;-inkscape-font-specification:'Sans Italic';letter-spacing:0px;word-spacing:0px;fill:#000000;fill-opacity:1;stroke:none"
   xml:space="preserve"><tspan
     y="129.45235"
     x="154.88649"
     id="tspan4713"
     sodipodi:role="line"
     style="font-style:normal;font-weight:bold;font-size:9.48746109px;line-height:1.25;font-family:sans-serif;-inkscape-font-specification:'Sans Bold'">T</tspan></text>



<g
   id="g4715"
   transform="translate(0.0836048,0.2958226)"><text
   xml:space="preserve"
   style="font-style:italic;font-weight:normal;line-height:0%;font-family:sans-serif;-inkscape-font-specification:'Sans Italic';letter-spacing:0px;word-spacing:0px;fill:#000000;fill-opacity:1;stroke:none"
   x="161.78801"
   y="130.16147"
   id="text4717"><tspan
     sodipodi:role="line"
     id="tspan4719"
     x="161.78801"
     y="130.16147"
     style="font-size:4.15213203px;line-height:1.25;font-family:sans-serif">camera</tspan></text>



<text
   xml:space="preserve"
   style="font-style:italic;font-weight:normal;line-height:0%;font-family:sans-serif;-inkscape-font-specification:'Sans Italic';letter-spacing:0px;word-spacing:0px;fill:#000000;fill-opacity:1;stroke:none"
   x="161.78801"
   y="124.25805"
   id="text4721"><tspan
     sodipodi:role="line"
     id="tspan4723"
     x="161.78801"
     y="124.25805"
     style="font-size:4.15213203px;line-height:1.25;font-family:sans-serif">robot</tspan></text>



</g></g></g><text
   xml:space="preserve"
   style="font-style:normal;font-weight:normal;line-height:0%;font-family:sans-serif;-inkscape-font-specification:Sans;text-align:start;letter-spacing:0px;word-spacing:0px;text-anchor:start;fill:#000000;fill-opacity:1;stroke:none"
   x="137.51529"
   y="125.21834"
   id="text8903"><tspan
     sodipodi:role="line"
     x="137.51529"
     y="125.21834"
     id="tspan8907"
     style="font-size:9.48746109px;line-height:1.25;font-family:sans-serif">Kalibriermuster</tspan></text>
<g
   transform="matrix(0.60986625,0.00337163,-0.00980296,1.7731813,267.57338,-764.97566)"
   id="g8515"><g
     transform="matrix(0.77471199,0,0,0.77471199,-57.205696,114.28699)"
     id="g8517"><g
       transform="matrix(1,0,0,0.22485912,0,392.13317)"
       id="g8519"><g
         id="g8521"><g
           id="g8523"><rect
             style="fill:#66696d;fill-opacity:1;stroke:none"
             id="rect8525"
             width="12.249819"
             height="7.6664572"
             x="-253.9225"
             y="500.80005" /><rect
             style="fill:#ffffff;fill-opacity:1;stroke:none"
             id="rect8527"
             width="12.249819"
             height="7.6664572"
             x="-241.67268"
             y="500.80005" /><rect
             style="fill:#66696d;fill-opacity:1;stroke:none"
             id="rect8529"
             width="12.249819"
             height="7.6664572"
             x="-229.42287"
             y="500.80005" /><rect
             style="fill:#ffffff;fill-opacity:1;stroke:none"
             id="rect8531"
             width="12.249819"
             height="7.6664572"
             x="-217.17305"
             y="500.80005" /><rect
             style="fill:#66696d;fill-opacity:1;stroke:none"
             id="rect8533"
             width="12.249819"
             height="7.6664572"
             x="-204.92323"
             y="500.80005" /><rect
             style="fill:#ffffff;fill-opacity:1;stroke:none"
             id="rect8535"
             width="12.249819"
             height="7.6664572"
             x="-192.67342"
             y="500.80005" /><rect
             style="fill:#66696d;fill-opacity:1;stroke:none"
             id="rect8537"
             width="12.249819"
             height="7.6664572"
             x="-180.42358"
             y="500.80005" /></g><rect
           y="500.80005"
           x="-168.17377"
           height="7.6664572"
           width="12.249819"
           id="rect8539"
           style="fill:#ffffff;fill-opacity:1;stroke:none" /></g><g
         id="g8541"
         transform="translate(97.998552)"><rect
           style="fill:#66696d;fill-opacity:1;stroke:none"
           id="rect8543"
           width="12.249819"
           height="7.6664572"
           x="-253.9225"
           y="500.80005" /></g></g></g><rect
     style="fill:#66696d;fill-opacity:1;fill-rule:nonzero;stroke:none"
     id="rect8545"
     width="85.401497"
     height="1.2279032"
     x="-253.9225"
     y="506.06491" /></g>

</svg>