<?xml version="1.0" encoding="utf-8"?>
<!-- Generator: Adobe Illustrator 21.1.0, SVG Export Plug-In . SVG Version: 6.00 Build 0)  -->
<svg version="1.1" id="Ebene_1" xmlns="http://www.w3.org/2000/svg" xmlns:xlink="http://www.w3.org/1999/xlink" x="0px" y="0px"
	 viewBox="0 0 453.5 240.5" style="enable-background:new 0 0 453.5 240.5;" xml:space="preserve">
<style type="text/css">
	.st0{fill:none;stroke:#070809;stroke-width:0.5;stroke-linecap:round;stroke-linejoin:round;stroke-dasharray:5,2,1,2;}
	.st1{fill:#070809;}
	.st2{font-family:'MicrosoftSansSerif';}
	.st3{font-size:10px;}
	.st4{stroke:#000000;stroke-width:0.25;stroke-linecap:round;stroke-linejoin:round;stroke-miterlimit:10;}
	.st5{stroke:#000000;stroke-width:0.25;stroke-miterlimit:10;}
	.st6{fill:none;stroke:#070809;stroke-width:0.5;stroke-linecap:round;stroke-linejoin:round;stroke-miterlimit:10;}
	.st7{stroke:#000000;stroke-width:0.25;stroke-linecap:round;stroke-linejoin:round;stroke-miterlimit:10;stroke-dasharray:5,2;}
</style>
<g>
	<g id="LINE_206_">
		<g>
			<g>
				<line class="st0" x1="245.8" y1="141.1" x2="213.5" y2="129.3"/>
				<g>
					<polygon class="st1" points="245.4,139.4 249.9,142.6 244.4,142.1 					"/>
				</g>
			</g>
		</g>
	</g>
	<g id="LINE_205_">
		<g>
			<g>
				<line class="st0" x1="239.1" y1="125.7" x2="221.7" y2="149.9"/>
				<g>
					<polygon class="st1" points="237.4,125.6 241.7,122.1 239.7,127.3 					"/>
				</g>
			</g>
		</g>
	</g>
	<g id="LINE_204_">
		<g>
			<g>
				<line class="st0" x1="230.8" y1="126.4" x2="233" y2="150"/>
				<g>
					<polygon class="st1" points="229.5,127.5 230.4,121.9 232.4,127.2 					"/>
				</g>
			</g>
		</g>
	</g>
	<g id="MTEXT_37_">
		<text transform="matrix(0.8 0 0 1 244.3197 137.7224)" class="st2 st3">x</text>
	</g>
	<g id="MTEXT_36_">
		<text transform="matrix(0.8 0 0 1 235.0827 123.5834)" class="st2 st3">y</text>
	</g>
	<g id="MTEXT_35_">
		<text transform="matrix(0.8 0 0 1 224.4408 126.5128)" class="st2 st3">z</text>
	</g>
	<g id="DIMENSION_11_">
		<g id="MTEXT_27_">
			<text transform="matrix(0.4088 -0.5683 0.8118 0.5839 316.9918 186.9854)" class="st2 st3">compartment.box.y</text>
		</g>
		<g id="LINE_170_">
			<line class="st4" x1="274.9" y1="108.3" x2="358" y2="138.6"/>
		</g>
		<g id="LINE_169_">
			<line class="st4" x1="238.7" y1="159.8" x2="308.7" y2="185.3"/>
		</g>
		<g id="LINE_168_">
			<line class="st4" x1="308.7" y1="185.3" x2="321.1" y2="189.9"/>
		</g>
		<g id="LINE_167_">
			<line class="st4" x1="356" y1="137.9" x2="337.6" y2="163.5"/>
		</g>
		<g id="LINE_166_">
			<line class="st4" x1="319.1" y1="189.1" x2="337.6" y2="163.5"/>
		</g>
		<g id="INSERT_23_">
			<g id="SOLID_23_">
				<polygon points="356,137.9 353.6,142.3 352.6,141.5 				"/>
			</g>
		</g>
		<g id="INSERT_22_">
			<g id="SOLID_22_">
				<polygon points="319.1,189.1 321.5,184.8 322.5,185.5 				"/>
			</g>
		</g>
	</g>
	<g id="DIMENSION_10_">
		<g id="MTEXT_26_">
			<text transform="matrix(0.6576 0.2399 -0.3427 0.9394 275.3854 12.8231)" class="st2 st3">compartment.box.x</text>
		</g>
		<g id="LINE_165_">
			<line class="st5" x1="225.5" y1="87.9" x2="277.1" y2="16.2"/>
		</g>
		<g id="LINE_164_">
			<line class="st5" x1="277.1" y1="16.2" x2="276.4" y2="17.1"/>
		</g>
		<g id="LINE_163_">
			<line class="st5" x1="277.4" y1="101.9" x2="320.6" y2="41.9"/>
		</g>
		<g id="LINE_162_">
			<line class="st5" x1="320.6" y1="41.9" x2="325.5" y2="35"/>
		</g>
		<g id="LINE_161_">
			<line class="st5" x1="276.5" y1="17" x2="301.1" y2="26"/>
		</g>
		<g id="LINE_160_">
			<line class="st5" x1="325.6" y1="34.9" x2="301.1" y2="26"/>
		</g>
		<g id="INSERT_21_">
			<g id="SOLID_21_">
				<polygon points="276.5,17 281.4,18.1 281,19.3 				"/>
			</g>
		</g>
		<g id="INSERT_20_">
			<g id="SOLID_20_">
				<polygon points="325.6,34.9 320.7,33.8 321.2,32.6 				"/>
			</g>
		</g>
	</g>
	<g id="DIMENSION_9_">
		<g id="MTEXT_25_">
			<text transform="matrix(6.323100e-02 0.6971 -0.9959 9.033000e-02 331.8466 60.7959)" class="st2 st3">compartment.box.z</text>
		</g>
		<g id="LINE_159_">
			<line class="st4" x1="274.6" y1="105.8" x2="318.3" y2="45.1"/>
		</g>
		<g id="LINE_158_">
			<line class="st4" x1="318.3" y1="45.1" x2="326.9" y2="33.2"/>
		</g>
		<g id="LINE_157_">
			<line class="st4" x1="276.7" y1="128.6" x2="327.2" y2="58.4"/>
		</g>
		<g id="LINE_156_">
			<line class="st4" x1="327.2" y1="58.4" x2="328.9" y2="56.1"/>
		</g>
		<g id="LINE_155_">
			<line class="st4" x1="325.6" y1="34.9" x2="326.7" y2="46.4"/>
		</g>
		<g id="LINE_154_">
			<line class="st4" x1="327.7" y1="57.8" x2="326.7" y2="46.4"/>
		</g>
		<g id="LINE_153_">
			<line class="st4" x1="326.7" y1="46.4" x2="333.4" y2="120.3"/>
		</g>
		<g id="INSERT_19_">
			<g id="SOLID_19_">
				<polygon points="325.6,34.9 326.7,39.8 325.4,39.9 				"/>
			</g>
		</g>
		<g id="INSERT_18_">
			<g id="SOLID_18_">
				<polygon points="327.7,57.8 326.6,52.9 327.9,52.8 				"/>
			</g>
		</g>
	</g>
	<g id="LINE_148_">
		<line class="st6" x1="100.7" y1="179.8" x2="95.5" y2="122.6"/>
	</g>
	<g id="LINE_147_">
		<line class="st6" x1="150" y1="46.9" x2="95.5" y2="122.6"/>
	</g>
	<g id="LINE_146_">
		<line class="st7" x1="119.1" y1="165.4" x2="114.7" y2="117.7"/>
	</g>
	<g id="LINE_145_">
		<line class="st6" x1="155.6" y1="60.9" x2="114.7" y2="117.7"/>
	</g>
	<g id="LINE_144_">
		<line class="st6" x1="100.7" y1="179.8" x2="249.5" y2="234.1"/>
	</g>
	<g id="LINE_143_">
		<line class="st7" x1="155.1" y1="104.2" x2="100.7" y2="179.8"/>
	</g>
	<g id="LINE_142_">
		<line class="st6" x1="159.9" y1="108.6" x2="145.3" y2="128.8"/>
	</g>
	<g id="LINE_141_">
		<line class="st7" x1="145.3" y1="128.8" x2="119.1" y2="165.4"/>
	</g>
	<g id="LINE_140_">
		<line class="st7" x1="119.1" y1="165.4" x2="243.1" y2="210.6"/>
	</g>
	<g id="LINE_139_">
		<line class="st7" x1="155.1" y1="104.2" x2="150" y2="46.9"/>
	</g>
	<g id="LINE_138_">
		<line class="st6" x1="159.9" y1="108.6" x2="155.6" y2="60.9"/>
	</g>
	<g id="LINE_137_">
		<line class="st7" x1="189.4" y1="163.9" x2="238.5" y2="181.9"/>
	</g>
	<g id="LINE_136_">
		<line class="st6" x1="95.5" y1="122.6" x2="244.4" y2="176.9"/>
	</g>
	<g id="LINE_135_">
		<line class="st6" x1="187.3" y1="141.1" x2="187.6" y2="144.3"/>
	</g>
	<g id="LINE_134_">
		<line class="st7" x1="187.6" y1="144.3" x2="189.4" y2="163.9"/>
	</g>
	<g id="LINE_133_">
		<line class="st6" x1="224.2" y1="89.8" x2="187.3" y2="141.1"/>
	</g>
	<g id="LINE_132_">
		<line class="st6" x1="114.7" y1="117.7" x2="238.8" y2="162.9"/>
	</g>
	<g id="LINE_131_">
		<line class="st6" x1="187.3" y1="141.1" x2="236.4" y2="159"/>
	</g>
	<g id="LINE_130_">
		<line class="st7" x1="226.2" y1="112.7" x2="189.4" y2="163.9"/>
	</g>
	<g id="LINE_129_">
		<line class="st7" x1="283.9" y1="153.8" x2="200.1" y2="123.3"/>
	</g>
	<g id="LINE_128_">
		<line class="st6" x1="200.1" y1="123.3" x2="159.9" y2="108.6"/>
	</g>
	<g id="LINE_127_">
		<line class="st7" x1="304" y1="158.4" x2="155.1" y2="104.2"/>
	</g>
	<g id="LINE_126_">
		<line class="st7" x1="224.2" y1="89.8" x2="226.2" y2="112.7"/>
	</g>
	<g id="LINE_125_">
		<line class="st6" x1="236.4" y1="159" x2="236.7" y2="162.2"/>
	</g>
	<g id="LINE_124_">
		<line class="st7" x1="236.7" y1="162.2" x2="238.5" y2="181.9"/>
	</g>
	<g id="LINE_123_">
		<line class="st7" x1="243.1" y1="210.6" x2="238.8" y2="162.9"/>
	</g>
	<g id="LINE_122_">
		<line class="st7" x1="275.4" y1="130.6" x2="226.2" y2="112.7"/>
	</g>
	<g id="LINE_121_">
		<line class="st6" x1="249.5" y1="234.1" x2="244.4" y2="176.9"/>
	</g>
	<g id="LINE_120_">
		<line class="st6" x1="236.4" y1="159" x2="273.3" y2="107.7"/>
	</g>
	<g id="LINE_119_">
		<line class="st6" x1="238.8" y1="162.9" x2="279.6" y2="106.2"/>
	</g>
	<g id="LINE_118_">
		<line class="st7" x1="238.5" y1="181.9" x2="275.4" y2="130.6"/>
	</g>
	<g id="LINE_117_">
		<line class="st6" x1="273.3" y1="107.7" x2="224.2" y2="89.8"/>
	</g>
	<g id="LINE_116_">
		<line class="st6" x1="244.4" y1="176.9" x2="298.8" y2="101.2"/>
	</g>
	<g id="LINE_115_">
		<line class="st6" x1="279.6" y1="106.2" x2="155.6" y2="60.9"/>
	</g>
	<g id="LINE_114_">
		<line class="st6" x1="298.8" y1="101.2" x2="150" y2="46.9"/>
	</g>
	<g id="LINE_113_">
		<line class="st6" x1="273.3" y1="107.7" x2="273.9" y2="114.1"/>
	</g>
	<g id="LINE_112_">
		<line class="st7" x1="273.9" y1="114.1" x2="275.4" y2="130.6"/>
	</g>
	<g id="LINE_111_">
		<line class="st7" x1="283.9" y1="153.8" x2="279.6" y2="106.2"/>
	</g>
	<g id="LINE_110_">
		<line class="st7" x1="243.1" y1="210.6" x2="283.9" y2="153.8"/>
	</g>
	<g id="LINE_109_">
		<line class="st6" x1="304" y1="158.4" x2="298.8" y2="101.2"/>
	</g>
	<g id="LINE_108_">
		<line class="st6" x1="249.5" y1="234.1" x2="304" y2="158.4"/>
	</g>
</g>
</svg>
